<?xml version="1.0" standalone="no"?>
<!DOCTYPE svg PUBLIC "-//W3C//DTD SVG 20010904//EN"
 "http://www.w3.org/TR/2001/REC-SVG-20010904/DTD/svg10.dtd">
<svg version="1.0" xmlns="http://www.w3.org/2000/svg"
 width="16.000000pt" height="16.000000pt" viewBox="0 0 16.000000 16.000000"
 preserveAspectRatio="xMidYMid meet">
<metadata>
Created by potrace 1.11, written by Peter Selinger 2001-2013
</metadata>
<g transform="translate(0.000000,16.000000) scale(0.001563,-0.001563)"
fill="#000000" stroke="none">
<path d="M1435 10223 c-560 -78 -1038 -424 -1274 -923 -83 -176 -129 -340
-150 -532 -15 -131 -15 -7174 -1 -7303 22 -199 68 -360 150 -533 161 -338 419
-600 755 -766 154 -76 285 -120 444 -147 114 -19 178 -19 3806 -17 l3690 3
105 27 c345 87 601 234 833 478 214 225 356 500 419 812 l23 113 0 3675 c0
3544 -1 3679 -19 3775 -95 510 -423 947 -881 1174 -138 69 -225 100 -380 139
l-110 27 -3690 1 c-2030 1 -3703 -1 -3720 -3z m4084 -2708 c270 -35 537 -100
785 -191 152 -57 467 -212 609 -301 142 -89 361 -253 350 -263 -4 -4 -158
-103 -342 -219 l-334 -211 -78 50 c-256 164 -595 296 -914 355 -1309 241
-2590 -517 -3010 -1780 -79 -238 -117 -454 -134 -765 -7 -142 -12 -173 -33
-220 -70 -154 -246 -250 -405 -220 -162 29 -280 145 -313 305 -13 63 -9 240
11 425 139 1316 1031 2438 2285 2873 234 81 517 144 750 167 60 5 125 12 144
14 81 9 512 -3 629 -19z m3019 -312 c-56 -66 -875 -1000 -1213 -1383 -1193
-1354 -1810 -2035 -1917 -2118 -252 -194 -608 -171 -832 54 -113 113 -174 250
-183 408 -12 224 78 411 270 555 203 152 1191 793 2642 1713 292 185 690 437
885 561 195 124 357 226 359 226 2 1 -3 -7 -11 -16z m-517 -1298 c317 -506
512 -1190 497 -1745 -3 -136 -5 -148 -32 -203 -78 -154 -249 -238 -416 -203
-84 18 -139 48 -197 108 -82 85 -112 185 -113 375 0 228 -71 581 -165 823 -20
52 -70 164 -112 247 l-75 153 29 34 c15 18 132 151 258 294 227 258 230 261
247 240 9 -12 44 -67 79 -123z"/>
</g>
</svg>
