<?xml version="1.0" encoding="utf-8"?>
<!-- Generator: Adobe Illustrator 21.0.2, SVG Export Plug-In . SVG Version: 6.00 Build 0)  -->
<svg
	version="1.1"
	id="Layer_1"
	xmlns:sketch="http://www.bohemiancoding.com/sketch/ns"
	xmlns="http://www.w3.org/2000/svg"
	xmlns:xlink="http://www.w3.org/1999/xlink"
	x="0px"
	y="0px"
	viewBox="0 0 1477 500"
	enable-background="new 0 0 1477 500"
	xml:space="preserve"
>
<style type="text/css">
	.st0{fill:#FFFFFF;}
</style>
<title>GooglePlay</title>
<desc>Created with Sketch.</desc>
<g id="Page-1" sketch:type="MSPage">
	<g id="GooglePlay" sketch:type="MSArtboardGroup">
		<g id="App-Store" transform="translate(20.000000, 16.000000)" sketch:type="MSLayerGroup">
			<path id="background" sketch:type="MSShapeGroup" d="M40-16h1357c33.1,0,60,26.9,60,60v380c0,33.1-26.9,60-60,60H40
				c-33.1,0-60-26.9-60-60V44C-20,10.9,6.9-16,40-16z"/>
			<g id="icon" transform="translate(130.000000, 88.000000)" sketch:type="MSShapeGroup">
				<path id="Fill-2" class="st0" d="M173.3,134.6c-0.3-35.8,29.3-53.2,30.6-54c-16.8-24.4-42.8-27.8-51.9-28.1
					c-21.8-2.3-43,13.1-54.1,13.1c-11.3,0-28.5-12.8-46.9-12.5c-23.7,0.4-46,14.1-58.1,35.5c-25.1,43.5-6.4,107.5,17.7,142.7
					c12.1,17.2,26.1,36.5,44.6,35.8c18-0.7,24.8-11.5,46.5-11.5c21.6,0,27.9,11.5,46.7,11.1c19.4-0.3,31.5-17.3,43.2-34.7
					c13.9-19.7,19.5-39.2,19.7-40.2C210.8,191.6,173.7,177.4,173.3,134.6"/>
				<path id="Fill-3" class="st0" d="M137.8,29.4c9.7-12.1,16.3-28.6,14.5-45.4c-14,0.6-31.6,9.7-41.7,21.6
					C101.7,16,93.7,33.2,95.8,49.3C111.5,50.5,127.7,41.3,137.8,29.4"/>
			</g>
			<g transform="translate(459.000000, 218.000000)" sketch:type="MSShapeGroup">
				<path id="Fill-4" class="st0" d="M105.5,134.6H80.3L66.5,91.2h-48L5.4,134.6h-24.5L28.4-13.1h29.4L105.5,134.6L105.5,134.6z
					 M62.4,73L49.9,34.5c-1.3-4-3.8-13.2-7.4-27.8H42c-1.5,6.3-3.8,15.6-7,27.8L22.7,73H62.4L62.4,73z"/>
				<path id="Fill-5" class="st0" d="M227.6,80.1c0,18.1-4.9,32.4-14.8,42.9c-8.8,9.4-19.8,14-32.8,14c-14.1,0-24.2-5-30.4-15.1
					v55.9h-23.7V63.1c0-11.4-0.3-23-0.9-35h20.8l1.3,16.9h0.4c7.9-12.7,19.9-19.1,35.9-19.1c12.6,0,23,5,31.4,14.9
					C223.4,50.8,227.6,63.8,227.6,80.1L227.6,80.1z M203.5,80.9c0-10.4-2.3-18.9-7-25.6c-5.1-7-12-10.5-20.6-10.5
					c-5.8,0-11.1,2-15.9,5.8c-4.7,3.9-7.9,8.9-9.3,15.2c-0.7,2.9-1.1,5.3-1.1,7.2v17.8c0,7.7,2.4,14.3,7.1,19.6
					c4.7,5.3,10.9,8,18.5,8c8.9,0,15.8-3.5,20.8-10.3C201,101.2,203.5,92.2,203.5,80.9L203.5,80.9z"/>
				<path id="Fill-6" class="st0" d="M350,80.1c0,18.1-4.9,32.4-14.8,42.9c-8.8,9.4-19.8,14-32.8,14c-14.1,0-24.2-5-30.4-15.1v55.9
					h-23.7V63.1c0-11.4-0.3-23-0.9-35h20.8l1.3,16.9h0.4c7.9-12.7,19.9-19.1,35.9-19.1c12.6,0,23,5,31.4,14.9
					C345.8,50.8,350,63.8,350,80.1L350,80.1z M325.9,80.9c0-10.4-2.3-18.9-7-25.6c-5.1-7-12-10.5-20.6-10.5c-5.8,0-11.1,2-15.9,5.8
					c-4.7,3.9-7.8,8.9-9.3,15.2c-0.7,2.9-1.1,5.3-1.1,7.2v17.8c0,7.7,2.4,14.3,7.1,19.6c4.7,5.3,10.9,8,18.5,8
					c8.9,0,15.9-3.5,20.8-10.3C323.5,101.2,325.9,92.2,325.9,80.9L325.9,80.9z"/>
				<path id="Fill-7" class="st0" d="M487,93.2c0,12.6-4.4,22.8-13.1,30.7c-9.6,8.6-23,12.9-40.2,12.9c-15.9,0-28.6-3.1-38.2-9.2
					l5.5-19.7c10.4,6.1,21.8,9.2,34.2,9.2c8.9,0,15.9-2,20.8-6c5-4,7.5-9.4,7.5-16.1c0-6-2.1-11-6.1-15.1
					c-4.1-4.1-10.9-7.9-20.4-11.4C410.9,58.8,398,44.7,398,26.2c0-12.1,4.6-22,13.7-29.8c9.1-7.7,21.2-11.6,36.3-11.6
					c13.4,0,24.6,2.3,33.5,7L475.5,11c-8.4-4.5-17.8-6.8-28.4-6.8c-8.3,0-14.9,2.1-19.6,6.1c-3.9,3.7-5.9,8.1-5.9,13.4
					c0,5.8,2.3,10.7,6.8,14.4c3.9,3.5,11.1,7.3,21.5,11.4c12.7,5.1,22,11.1,28,18C484,74.4,487,83,487,93.2"/>
				<path id="Fill-8" class="st0" d="M565.4,45.9h-26.1v51.7c0,13.1,4.6,19.7,13.8,19.7c4.2,0,7.7-0.4,10.5-1.1l0.7,18
					c-4.7,1.7-10.8,2.6-18.4,2.6c-9.4,0-16.6-2.9-21.9-8.6c-5.3-5.7-7.9-15.3-7.9-28.7V45.8h-15.5V28.1h15.5V8.6l23.2-7v26.5h26.1
					V45.9"/>
				<path id="Fill-9" class="st0" d="M682.8,80.5c0,16.4-4.7,29.8-14,40.3c-9.8,10.8-22.8,16.2-39,16.2c-15.6,0-28.1-5.2-37.4-15.5
					S578.5,98,578.5,82.3c0-16.5,4.8-30,14.3-40.5c9.6-10.5,22.5-15.8,38.7-15.8c15.6,0,28.2,5.2,37.7,15.6
					C678.3,51.6,682.8,64.6,682.8,80.5L682.8,80.5z M658.3,81c0-9.8-2.1-18.1-6.3-25.1c-5-8.5-12.1-12.7-21.3-12.7
					c-9.5,0-16.8,4.2-21.7,12.7c-4.3,7-6.3,15.5-6.3,25.6c0,9.8,2.1,18.2,6.3,25.1c5.1,8.5,12.3,12.7,21.5,12.7
					c9,0,16.1-4.3,21.3-12.9C656.1,99.2,658.3,90.8,658.3,81L658.3,81z"/>
				<path id="Fill-10" class="st0" d="M759.8,48.9c-2.3-0.4-4.8-0.6-7.5-0.6c-8.3,0-14.8,3.1-19.3,9.4c-3.9,5.5-5.9,12.6-5.9,21
					v55.9h-23.7v-73c0-12.3-0.2-23.5-0.7-33.5h20.6l0.9,20.4h0.7c2.5-7,6.4-12.7,11.8-16.9c5.3-3.8,11-5.7,17.1-5.7
					c2.2,0,4.2,0.2,5.9,0.4L759.8,48.9"/>
				<path id="Fill-11" class="st0" d="M865.6,76.3c0,4.2-0.3,7.8-0.9,10.7h-71c0.3,10.5,3.7,18.6,10.3,24.1c6,4.9,13.7,7.4,23.2,7.4
					c10.5,0,20.1-1.7,28.7-5l3.7,16.4c-10.1,4.4-22,6.6-35.7,6.6c-16.5,0-29.5-4.9-38.9-14.6c-9.4-9.7-14.1-22.8-14.1-39.1
					c0-16,4.4-29.4,13.2-40.1c9.2-11.4,21.6-17.1,37.2-17.1c15.3,0,27,5.7,34.8,17.1C862.4,51.9,865.6,63,865.6,76.3L865.6,76.3z
					 M843,70.2c0.2-7-1.4-13.1-4.6-18.2c-4.1-6.6-10.4-9.9-18.8-9.9c-7.7,0-14,3.2-18.8,9.6c-3.9,5.1-6.3,11.3-7,18.4L843,70.2
					L843,70.2z"/>
			</g>
			<g id="Available-on-the" transform="translate(468.000000, 91.000000)" sketch:type="MSShapeGroup">
				<path id="Fill-12" class="st0" d="M42,61.1H29.6l-6.8-21.3H-0.8l-6.5,21.3h-12.1L4-11.5h14.4L42,61.1L42,61.1z M20.7,30.8
					l-6.1-19C14,9.9,12.8,5.4,10.9-1.8h-0.2C10,1.3,8.9,5.8,7.3,11.9l-6,19H20.7L20.7,30.8z"/>
				<path id="Fill-13" class="st0" d="M100.4,8.7L80.6,61.1H69.3L50.1,8.7h12.5l8.9,27.7c1.5,4.6,2.8,9,3.8,13.2h0.3
					c0.9-3.8,2.2-8.2,3.8-13.2l8.8-27.7H100.4"/>
				<path id="Fill-14" class="st0" d="M142.6,61.1l-0.9-6h-0.3c-3.6,4.8-8.7,7.2-15.3,7.2c-9.4,0-16-6.6-16-15.4
					c0-12.9,11.2-19.6,30.6-19.6v-1c0-6.9-3.7-10.3-10.9-10.3c-5.2,0-9.7,1.3-13.7,3.9l-2.4-7.6c4.8-3,10.9-4.5,18-4.5
					c13.7,0,20.6,7.2,20.6,21.7v19.3c0,5.3,0.2,9.4,0.8,12.5L142.6,61.1L142.6,61.1z M141,35c-12.9,0-19.4,3.1-19.4,10.6
					c0,5.5,3.3,8.2,8,8.2c5.9,0,11.4-4.5,11.4-10.7V35L141,35z"/>
				<path id="Fill-15" class="st0" d="M178.2,0.1c-3.9,0-6.9-3-6.9-7s3.1-6.9,7.1-6.9c4,0,7.2,2.9,7.1,6.9
					C185.5-2.7,182.5,0.1,178.2,0.1L178.2,0.1z M172.6,8.7h11.6v52.3h-11.6V8.7z"/>
				<path id="Fill-16" class="st0" d="M204.9-15.3h11.6v76.3h-11.6V-15.3z"/>
				<path id="Fill-17" class="st0" d="M265.9,61.1l-0.9-6h-0.3c-3.6,4.8-8.7,7.2-15.3,7.2c-9.4,0-16-6.6-16-15.4
					c0-12.9,11.2-19.6,30.6-19.6v-1c0-6.9-3.7-10.3-10.9-10.3c-5.2,0-9.7,1.3-13.7,3.9l-2.4-7.7c4.8-3,10.9-4.5,18-4.5
					c13.7,0,20.6,7.2,20.6,21.7v19.3c0,5.3,0.2,9.4,0.7,12.5H265.9L265.9,61.1z M264.3,35c-12.9,0-19.4,3.1-19.4,10.6
					c0,5.5,3.3,8.2,8,8.2c5.9,0,11.4-4.5,11.4-10.7V35L264.3,35z"/>
				<path id="Fill-18" class="st0" d="M322.8,62.3c-7.4,0-12.9-3.1-16.5-9.3h-0.2l-0.7,8.1h-9.9c0.3-4.2,0.4-8.9,0.4-14.1v-62.2
					h11.7v31.7h0.2c3.5-5.8,9-8.7,16.7-8.7c12.6,0,21.4,10.8,21.4,26.5C345.9,50.4,336.1,62.3,322.8,62.3L322.8,62.3z M320.4,16.8
					c-6.7,0-12.8,5.8-12.8,13.9v9.2c0,7.2,5.5,13.1,12.6,13.1c8.7,0,13.9-7.1,13.9-18.4C334.1,24,328.7,16.8,320.4,16.8L320.4,16.8z
					"/>
				<path id="Fill-19" class="st0" d="M363.1-15.3h11.6v76.3h-11.6V-15.3z"/>
				<path id="Fill-20" class="st0" d="M438,37.7h-34.9c0.2,9.9,6.8,15.5,16.5,15.5c5.2,0,9.9-0.9,14.1-2.5l1.8,8.1
					C430.6,61,424.8,62,418,62c-16.4,0-26.1-10.3-26.1-26.4c0-16,9.9-28.1,24.8-28.1c13.3,0,21.8,9.9,21.8,24.9
					C438.5,34.5,438.4,36.3,438,37.7L438,37.7z M427.4,29.4c0-8.1-4.1-13.8-11.5-13.8c-6.7,0-11.9,5.8-12.7,13.8H427.4L427.4,29.4z"
					/>
				<path id="Fill-21" class="st0" d="M508.5,62.3c-15.3,0-25.2-11.4-25.2-26.9c0-16.2,10.1-27.7,26.1-27.7
					c15.1,0,25.2,10.9,25.2,26.8C534.6,50.8,524.2,62.3,508.5,62.3L508.5,62.3z M509,16.2c-8.4,0-13.8,7.9-13.8,18.8
					c0,10.8,5.5,18.6,13.7,18.6c8.2,0,13.7-8.4,13.7-18.9C522.5,24.1,517.2,16.2,509,16.2L509,16.2z"/>
				<path id="Fill-22" class="st0" d="M597.1,61.1h-11.6V31c0-9.3-3.6-13.9-10.6-13.9c-6.9,0-11.6,5.9-11.6,12.8v31.1h-11.6V23.7
					c0-4.6-0.1-9.6-0.4-15h10.2l0.5,8.1h0.3c3.1-5.6,9.5-9.2,16.6-9.2c11,0,18.2,8.4,18.2,22.1V61.1"/>
				<path id="Fill-23" class="st0" d="M673.2,17.5h-12.8v25.4c0,6.5,2.3,9.7,6.8,9.7c2,0,3.8-0.2,5.2-0.5l0.3,8.8
					c-2.3,0.9-5.3,1.3-9,1.3c-9.2,0-14.6-5.1-14.6-18.3V17.5h-7.6V8.7h7.6v-9.6l11.4-3.5v13h12.8V17.5"/>
				<path id="Fill-24" class="st0" d="M734.8,61.1h-11.6V31.2c0-9.4-3.6-14.1-10.6-14.1c-6,0-11.6,4.1-11.6,12.4v31.5h-11.6v-76.3
					H701v31.4h0.2c3.7-5.7,8.9-8.5,15.7-8.5c11.1,0,17.9,8.6,17.9,22.3V61.1"/>
				<path id="Fill-25" class="st0" d="M794.2,37.7h-34.9c0.2,9.9,6.8,15.5,16.5,15.5c5.2,0,9.9-0.9,14.1-2.5l1.8,8.1
					C786.8,61,781,62,774.2,62c-16.4,0-26.1-10.3-26.1-26.4c0-16,9.9-28.1,24.8-28.1c13.3,0,21.8,9.9,21.8,24.9
					C794.7,34.5,794.6,36.3,794.2,37.7L794.2,37.7z M783.6,29.4c0-8.1-4.1-13.8-11.5-13.8c-6.7,0-12,5.8-12.7,13.8H783.6L783.6,29.4
					z"/>
			</g>
		</g>
	</g>
</g>
</svg>
