<?xml version="1.0" encoding="utf-8"?>
<!-- Generator: Adobe Illustrator 16.0.0, SVG Export Plug-In . SVG Version: 6.00 Build 0)  -->
<!DOCTYPE svg PUBLIC "-//W3C//DTD SVG 1.1//EN" "http://www.w3.org/Graphics/SVG/1.1/DTD/svg11.dtd">
<svg version="1.1" id="Layer_1" xmlns="http://www.w3.org/2000/svg" xmlns:xlink="http://www.w3.org/1999/xlink" x="0px" y="0px"
	 width="36px" height="36px" viewBox="0 0 36 36" enable-background="new 0 0 36 36" xml:space="preserve">
<g>
	<path d="M35.169,27.825h-3.433V21.5c0-0.188-0.151-0.34-0.34-0.34h-3.369c-0.188,0-0.34,0.15-0.34,0.34v6.324h-3.43
		c-0.121,0-0.232,0.064-0.293,0.17c-0.062,0.104-0.062,0.232-0.002,0.338l5.453,6.568c0.059,0.104,0.172,0.17,0.294,0.17
		s0.235-0.065,0.294-0.17l5.459-6.567c0.057-0.104,0.057-0.233-0.002-0.338S35.291,27.825,35.169,27.825z"/>
	<path d="M29.027,16.722h1.359c0.01-0.025,0.018-0.049,0.018-0.078L30.396,6.383c0-0.151-0.088-0.362-0.193-0.47
		L24.783,0.5c-0.107-0.106-0.319-0.194-0.471-0.194H6.298c-0.307,0-0.551,0.247-0.549,0.551v9.441H1.412
		c-0.371,0-0.668,0.297-0.668,0.672l0.003,9.521c0.003,0.374,0.306,0.67,0.677,0.67h4.324l0.002,13.36
		c-0.004,0.303,0.242,0.547,0.549,0.547h15.689v-1.377H7.367c-0.111,0-0.203-0.09-0.203-0.202V21.162h15.88
		c0.37,0,0.671-0.296,0.671-0.67V10.97c0-0.375-0.301-0.672-0.671-0.672H7.164V1.889c0-0.113,0.091-0.204,0.202-0.204H23.17
		c0.113,0,0.205,0.091,0.205,0.204l0.002,4.848c-0.002,0.305,0.242,0.55,0.545,0.55h4.885c0.113,0,0.205,0.092,0.205,0.205v9.152
		C29.012,16.673,29.02,16.697,29.027,16.722z M18.142,16.491c-1.072-0.418-1.613-1.094-1.613-2.004c0-1.215,0.932-2.064,2.266-2.064
		c0.611,0,1.295,0.185,1.652,0.367l0.229,0.116l-0.435,1.57l-0.348-0.187c-0.168-0.093-0.604-0.238-1.047-0.238
		c-0.367,0-0.396,0.247-0.396,0.323c0,0.126,0,0.218,0.728,0.528c1.043,0.435,1.529,1.076,1.529,2.021
		c0,0.975-0.627,2.114-2.396,2.114c-0.656,0-1.488-0.232-1.822-0.439l-0.178-0.11l0.266-1.626l0.395,0.229
		c0.264,0.15,0.873,0.318,1.33,0.318c0.316,0,0.504-0.146,0.504-0.393C18.809,16.909,18.809,16.76,18.142,16.491z M10.895,12.501
		h1.888v4.747h2.658v1.703l-4.546,0.008V12.501z M9.833,12.501l-1.848,3.144l2.021,3.314H7.792l-0.919-1.562L5.95,18.959H3.748
		l2.018-3.354L3.92,12.501h2.168l0.803,1.4l0.787-1.4H9.833z"/>
</g>
</svg>
