<?xml version="1.0" encoding="utf-8"?>
<!-- Generator: Adobe Illustrator 16.0.0, SVG Export Plug-In . SVG Version: 6.00 Build 0)  -->
<!DOCTYPE svg PUBLIC "-//W3C//DTD SVG 1.1//EN" "http://www.w3.org/Graphics/SVG/1.1/DTD/svg11.dtd">
<svg version="1.1" id="Layer_1" xmlns="http://www.w3.org/2000/svg" xmlns:xlink="http://www.w3.org/1999/xlink" x="0px" y="0px"
	 width="36px" height="36px" viewBox="0 0 36 36" enable-background="new 0 0 36 36" xml:space="preserve">
<g>
	<path fill="#FFFFFF" d="M6.732,15.125c0.105-0.039,0.184-0.097,0.244-0.176c0.056-0.075,0.087-0.162,0.087-0.271
		c0-0.133-0.042-0.232-0.118-0.31c-0.084-0.088-0.189-0.138-0.324-0.161c-0.089-0.014-0.306-0.032-0.834-0.032H5.498v1.016h0.371
		C6.473,15.191,6.675,15.143,6.732,15.125z"/>
	<path fill="#FFFFFF" d="M11.966,17.264c0.438,0,0.779-0.126,1.01-0.376c0.254-0.276,0.385-0.696,0.385-1.253
		c0.003-0.498-0.121-0.874-0.364-1.121c-0.218-0.219-0.53-0.331-0.93-0.331c-0.088,0-0.16,0.004-0.224,0.009v3.072
		c0.037,0,0.073,0,0.104,0H11.966L11.966,17.264z"/>
	<path fill="#FFFFFF" d="M1.421,21.154h4.314L5.739,34.49c-0.003,0.302,0.244,0.549,0.548,0.549h15.662v-1.376H7.353
		c-0.111,0-0.203-0.09-0.203-0.203V21.154h15.852c0.37,0,0.67-0.297,0.67-0.67v-9.503c0-0.374-0.3-0.67-0.67-0.67H7.15V1.917
		c0-0.113,0.092-0.204,0.201-0.204h15.775c0.112,0,0.205,0.091,0.205,0.204l0.002,4.839c-0.002,0.304,0.241,0.55,0.545,0.55h4.877
		c0.113,0,0.201,0.091,0.201,0.203v9.137c0,0.027,0.009,0.053,0.017,0.077h1.359c0.007-0.024,0.014-0.05,0.014-0.077L30.339,6.402
		c0.002-0.15-0.086-0.361-0.192-0.469l-5.408-5.404c-0.107-0.104-0.318-0.192-0.469-0.192H6.287c-0.307,0-0.551,0.245-0.548,0.549
		v9.426h-4.33c-0.372,0-0.669,0.296-0.665,0.67l0.002,9.504C0.75,20.857,1.05,21.154,1.421,21.154z M16.342,12.673h4.506v1.562
		h-2.661v0.807h2.374v1.414h-2.375v2.336h-1.843V12.673z M10.072,12.8l0.244-0.044c0.438-0.076,1.039-0.119,1.632-0.119
		c1.007,0,1.704,0.203,2.255,0.655c0.63,0.509,0.962,1.305,0.962,2.301c0,1.31-0.509,2.052-0.935,2.446
		c-0.578,0.521-1.429,0.788-2.529,0.788c-0.498,0-0.982-0.03-1.373-0.086l-0.256-0.035V12.8L10.072,12.8z M3.572,12.673h2.363
		c0.787,0,1.295,0.032,1.552,0.095c0.412,0.097,0.763,0.312,1.041,0.642c0.278,0.328,0.417,0.749,0.417,1.252
		c0,0.386-0.081,0.722-0.238,0.996c-0.16,0.271-0.366,0.489-0.617,0.645c-0.242,0.153-0.495,0.255-0.75,0.31
		c-0.32,0.057-0.76,0.082-1.343,0.082H5.498v2.099H3.575v-6.119H3.572V12.673z"/>
	<path fill="#FFFFFF" d="M35.107,27.805H31.68v-6.312c0-0.188-0.15-0.34-0.338-0.34h-3.363c-0.188,0-0.34,0.152-0.34,0.34v6.312
		h-3.423c-0.12,0-0.233,0.065-0.295,0.17c-0.062,0.104-0.062,0.231,0,0.338l5.442,6.556c0.061,0.104,0.173,0.171,0.296,0.171
		c0.12,0,0.233-0.066,0.293-0.17l5.446-6.557c0.061-0.104,0.061-0.233-0.002-0.338C35.337,27.871,35.227,27.805,35.107,27.805z"/>
</g>
</svg>
