<?xml version="1.0" encoding="utf-8"?>
<!-- Generator: Adobe Illustrator 16.0.0, SVG Export Plug-In . SVG Version: 6.00 Build 0)  -->
<!DOCTYPE svg PUBLIC "-//W3C//DTD SVG 1.1//EN" "http://www.w3.org/Graphics/SVG/1.1/DTD/svg11.dtd">
<svg version="1.1" id="Layer_1" xmlns="http://www.w3.org/2000/svg" xmlns:xlink="http://www.w3.org/1999/xlink" x="0px" y="0px"
	 width="100%" height="100%" viewBox="0 0 42.279 36" enable-background="new 0 0 42.279 36" xml:space="preserve">
<g>
	<g>
		<path d="M16.085,6.075c-0.236,0-0.484,0.25-0.484,0.484v3.186c0,0.654,0.349,1.277,0.9,1.592v0.763
			c0,0.053,0.068,0.085,0.068,0.138c0,0.104-0.068,0.172-0.068,0.277v1.385c0,1.492,0.742,2.832,1.869,3.67
			c-0.104,0.759-0.376,1.199-0.9,1.592c-0.629,0.445-1.553,0.785-2.493,1.178c-0.942,0.394-1.917,0.938-2.7,1.801
			c-0.76,0.838-1.246,2.081-1.246,3.809v0.415h20.219v-0.415c0-1.701-0.46-2.902-1.247-3.739c-0.757-0.812-1.784-1.269-2.7-1.662
			c-0.943-0.393-1.819-0.732-2.424-1.177c-0.549-0.445-0.891-0.937-0.969-1.801c1.099-0.838,1.801-2.204,1.801-3.67v-1.385v-0.277
			v-0.138V9.745c0-1.519-1.184-2.701-2.7-2.701h-1.801H21.14h-3.531c-0.157,0-0.502-0.104-0.762-0.207
			c-0.104-0.054-0.226-0.086-0.277-0.139c-0.026-0.054-0.068-0.062-0.068-0.139C16.501,6.325,16.347,6.075,16.085,6.075z"/>
		<path d="M8.814,9.813c-1.308,0-2.424,0.882-2.424,2.217v2.008v0.139v0.276v1.177c0,1.282,0.331,2.385,1.246,3.116
			c-0.053,0.733-0.36,1.157-0.831,1.524c-2.983,1.412-4.985,2.302-4.985,5.678v0.415h8.24v-0.415c0-1.91,0.607-3.411,1.523-4.432
			c0.523-0.576,1.155-1.001,1.731-1.315c0-0.026-0.069-0.069-0.069-0.069c-0.444-0.341-0.683-0.73-0.762-1.386
			c0.968-0.706,1.246-1.807,1.246-3.116v-1.177v-0.276v-0.139v-0.693c0.47-0.287,0.97-0.766,0.97-1.314V9.813h-1.731h-2.562h-0.069
			H8.814z"/>
		<path d="M27.579,9.813v2.217c0,0.549,0.429,1.027,0.9,1.314v0.693c0,0.025,0.069,0.085,0.069,0.139
			c-0.026,0.077-0.069,0.173-0.069,0.276v1.177c0,1.31,0.346,2.41,1.316,3.116c-0.08,0.655-0.359,1.045-0.831,1.386v0.069
			c0.602,0.314,1.207,0.739,1.73,1.315c0.941,1.021,1.455,2.521,1.455,4.432v0.415h8.309v-0.415c0-3.376-2.044-4.266-5.055-5.678
			c-0.472-0.367-0.709-0.791-0.762-1.524c0.941-0.731,1.246-1.834,1.246-3.116v-1.177c0-0.104-0.068-0.199-0.068-0.276
			c0-0.054,0.068-0.113,0.068-0.139V12.03c0-1.335-1.089-2.217-2.423-2.217h-1.523h-0.069h-2.562H27.579z"/>
	</g>
</g>
</svg>
