<?xml version="1.0" encoding="utf-8"?>
<!-- Generator: Adobe Illustrator 16.0.0, SVG Export Plug-In . SVG Version: 6.00 Build 0)  -->
<!DOCTYPE svg PUBLIC "-//W3C//DTD SVG 1.1//EN" "http://www.w3.org/Graphics/SVG/1.1/DTD/svg11.dtd">
<svg version="1.1" id="Layer_1" xmlns="http://www.w3.org/2000/svg" xmlns:xlink="http://www.w3.org/1999/xlink" x="0px" y="0px"
	 width="60px" height="60px" viewBox="0 0 60 60" enable-background="new 0 0 60 60" xml:space="preserve">
<g>
	<path d="M50.021,45.473l-8.668-8.668l0.369-0.66c1.438-2.568,2.198-5.486,2.198-8.438
		c0-9.595-7.871-17.4-17.546-17.4c-9.676,0-17.547,7.806-17.547,17.4c0,9.594,7.871,17.399,17.547,17.399
		c3.503,0,6.884-1.021,9.777-2.95l0.682-0.455l8.48,8.479c1.255,1.255,3.446,1.255,4.703-0.002c0.629-0.629,0.976-1.465,0.976-2.354
		C50.993,46.934,50.648,46.1,50.021,45.473z M26.375,41.057c-7.416,0-13.449-5.989-13.449-13.351
		c0-7.362,6.033-13.352,13.449-13.352s13.449,5.989,13.449,13.352C39.824,35.067,33.791,41.057,26.375,41.057z"/>
	<path d="M23.311,29.829l2.787,2.412c0.405,0.352,1.015,0.32,1.383-0.071l6.577-6.994
		c0.378-0.401,0.358-1.035-0.044-1.413c-0.4-0.378-1.033-0.361-1.413,0.044l-5.92,6.295l-2.771-2.398
		c-0.4-0.347-1-0.321-1.367,0.055l-5.577,5.677c-0.108,0.11-0.179,0.241-0.226,0.378c-0.121,0.354-0.046,0.758,0.237,1.036
		c0.195,0.191,0.448,0.287,0.701,0.287c0.018,0,0.034-0.01,0.053-0.011c0.24-0.013,0.479-0.103,0.66-0.288L23.311,29.829z"/>
</g>
</svg>
