<?xml version="1.0" encoding="utf-8"?>
<!-- Generator: Adobe Illustrator 16.0.0, SVG Export Plug-In . SVG Version: 6.00 Build 0)  -->
<!DOCTYPE svg PUBLIC "-//W3C//DTD SVG 1.1//EN" "http://www.w3.org/Graphics/SVG/1.1/DTD/svg11.dtd">
<svg version="1.1" id="Layer_1" xmlns="http://www.w3.org/2000/svg" xmlns:xlink="http://www.w3.org/1999/xlink" x="0px" y="0px"
	 width="30px" height="30px" viewBox="0 0 30 30" enable-background="new 0 0 30 30" xml:space="preserve">
<path fill="#2B3990" d="M19.73,8.77V6.384H16.5c-1.692,0-3.077,1.462-3.077,3.231v3.077h-3.154v2.231h3.154v8.923h2.692v-8.923
	h3.615v-2.231h-3.615v-2.615c0-0.692,0.538-1.307,1.153-1.307H19.73z"/>
<path fill="#3F50A0" d="M24.231,0H5.769C2.615,0,0,2.615,0,5.769v18.462C0,27.384,2.615,30,5.769,30h18.462
	C27.386,30,30,27.384,30,24.231V5.769C30,2.615,27.462,0,24.231,0z"/>
<path fill="#FFFFFF" d="M17.269,9.248h2.941V5.906H16.5c-1.96,0-3.555,1.664-3.555,3.709v2.598H9.79v3.188h3.154v8.923h3.649v-8.923
	h3.616v-3.188h-3.616v-2.137C16.594,9.65,16.923,9.248,17.269,9.248z"/>
</svg>
