<?xml version="1.0" encoding="utf-8"?>
<!-- Generator: Adobe Illustrator 16.0.0, SVG Export Plug-In . SVG Version: 6.00 Build 0)  -->
<!DOCTYPE svg PUBLIC "-//W3C//DTD SVG 1.1//EN" "http://www.w3.org/Graphics/SVG/1.1/DTD/svg11.dtd">
<svg version="1.1" id="Layer_1" xmlns="http://www.w3.org/2000/svg" xmlns:xlink="http://www.w3.org/1999/xlink" x="0px" y="0px"
	 width="60px" height="60px" viewBox="0 0 60 60" enable-background="new 0 0 60 60" xml:space="preserve">
<g>
	<ellipse cx="26.166" cy="23.569" rx="4.381" ry="4.912"/>
	<path d="M35.268,33.77c-0.061,0.082-0.11,0.17-0.174,0.252c-0.264-0.791-0.594-1.518-0.988-2.045
		c-0.791-1.055-2.901-1.779-4.748-2.176c-0.131,0-0.264,0-0.395,0.132l-1.715,1.713c-0.066,0.066-0.132,0.198-0.132,0.33
		l0.593,6.791c-0.854,0.172-1.751,0.226-2.619,0.199c0.452,0.055,0.909,0.09,1.375,0.09c3.538,0,6.706-1.601,8.809-4.107
		c0.067-0.137,0.121-0.283,0.192-0.418C35.398,34.277,35.32,34.027,35.268,33.77z"/>
	<path d="M25.27,31.977c0-0.132-0.065-0.264-0.131-0.33l-1.649-1.779c-0.132-0.131-0.264-0.131-0.396-0.131
		c-1.846,0.461-3.955,1.12-4.747,2.176c-0.462,0.6-0.823,1.496-1.136,2.451c1.749,2.383,4.404,4.062,7.465,4.541V38.9L25.27,31.977z
		"/>
	<path d="M50.111,45.473l-8.668-8.668l0.369-0.66c1.438-2.567,2.199-5.485,2.199-8.438
		c0-9.595-7.871-17.4-17.548-17.4c-9.676,0-17.547,7.806-17.547,17.4c0,9.594,7.871,17.398,17.547,17.398
		c3.503,0,6.886-1.021,9.778-2.95l0.682-0.455l8.479,8.479c1.258,1.256,3.447,1.254,4.705-0.002
		C51.406,48.878,51.407,46.77,50.111,45.473z M26.465,41.057c-7.416,0-13.449-5.988-13.449-13.351s6.033-13.352,13.449-13.352
		s13.449,5.989,13.449,13.352C39.914,35.066,33.881,41.057,26.465,41.057z"/>
</g>
</svg>
