<?xml version="1.0" encoding="utf-8"?>
<!-- Generator: Adobe Illustrator 16.0.0, SVG Export Plug-In . SVG Version: 6.00 Build 0)  -->
<!DOCTYPE svg PUBLIC "-//W3C//DTD SVG 1.1//EN" "http://www.w3.org/Graphics/SVG/1.1/DTD/svg11.dtd">
<svg version="1.1" id="Layer_1" xmlns="http://www.w3.org/2000/svg" xmlns:xlink="http://www.w3.org/1999/xlink" x="0px" y="0px"
	 width="30px" height="30.001px" viewBox="0 0 30 30.001" enable-background="new 0 0 30 30.001" xml:space="preserve">
<g>
	<path fill="#0278B6" d="M24.23,0H5.769C2.615,0,0,2.615,0,5.77v18.462c0,3.154,2.615,5.77,5.769,5.77H24.23
		c3.154,0,5.77-2.615,5.77-5.77V5.77C30,2.615,27.461,0,24.23,0z"/>
</g>
<g>
	<path fill-rule="evenodd" clip-rule="evenodd" fill="#FFFFFF" d="M16.068,13.675c0.183-0.238,0.354-0.487,0.551-0.711
		c1.138-1.299,2.626-1.518,4.234-1.358c1.107,0.109,2.093,0.485,2.76,1.426c0.595,0.839,0.822,1.825,0.846,2.83
		c0.059,2.557,0.059,5.115,0.094,7.671c0.006,0.379-0.132,0.512-0.506,0.504c-0.954-0.016-1.908-0.02-2.862,0.002
		c-0.41,0.01-0.522-0.158-0.519-0.541c0.011-1.863,0.014-3.729-0.006-5.593c-0.006-0.487-0.063-0.983-0.166-1.461
		c-0.214-1.007-0.72-1.468-1.644-1.579c-1.006-0.122-2.015,0.293-2.341,1.123c-0.253,0.644-0.403,1.363-0.426,2.055
		c-0.058,1.791-0.02,3.584-0.021,5.377c-0.001,0.588-0.026,0.611-0.613,0.613c-0.911,0.002-1.821-0.01-2.731,0.004
		c-0.336,0.004-0.46-0.127-0.459-0.463c0.006-3.787,0.007-7.574-0.001-11.36c0-0.367,0.15-0.477,0.494-0.472
		c0.911,0.014,1.822,0.016,2.732,0c0.359-0.006,0.493,0.135,0.479,0.486c-0.018,0.474-0.004,0.948-0.004,1.422
		C15.996,13.657,16.033,13.667,16.068,13.675z"/>
	<path fill-rule="evenodd" clip-rule="evenodd" fill="#FFFFFF" d="M6.363,17.892c0-1.848-0.001-3.696,0-5.545
		c0.001-0.59,0.012-0.6,0.614-0.602c0.896,0,1.791,0.012,2.687-0.006c0.378-0.006,0.505,0.145,0.504,0.514
		c-0.007,3.754-0.007,7.51,0,11.264c0.001,0.361-0.111,0.527-0.497,0.52c-0.938-0.018-1.877-0.018-2.816,0
		c-0.384,0.008-0.5-0.145-0.498-0.512C6.37,21.647,6.364,19.77,6.363,17.892z"/>
	<path fill-rule="evenodd" clip-rule="evenodd" fill="#FFFFFF" d="M8.257,5.482c1.362-0.004,2.39,0.986,2.407,2.317
		c0.017,1.306-1.041,2.363-2.365,2.363c-1.351,0.002-2.375-1.01-2.373-2.345C5.928,6.496,6.936,5.487,8.257,5.482z"/>
</g>
</svg>
