<?xml version="1.0" encoding="utf-8"?>
<!-- Generator: Adobe Illustrator 16.0.0, SVG Export Plug-In . SVG Version: 6.00 Build 0)  -->
<!DOCTYPE svg PUBLIC "-//W3C//DTD SVG 1.1//EN" "http://www.w3.org/Graphics/SVG/1.1/DTD/svg11.dtd">
<svg version="1.1" id="Layer_1" xmlns="http://www.w3.org/2000/svg" xmlns:xlink="http://www.w3.org/1999/xlink" x="0px" y="0px"
	 width="194.792px" height="51.418px" viewBox="0 0 194.792 51.418" enable-background="new 0 0 194.792 51.418"
	 xml:space="preserve">
<g>
	<g>
		<path fill="none" d="M40.725,4.89c-1.6,2.119-3.216,4.226-4.788,6.347C37.508,9.116,39.125,7.009,40.725,4.89z"/>
		<path fill="none" d="M39.949,20.568c-0.288-0.806-1.279-2.681-1.381-2.848c-0.615-0.995-1.339-1.872-2.133-2.677
			c-0.635-0.638-1.338-1.181-2.062-1.688c-1.074-0.752-2.222-1.391-3.438-1.839c-1.653-0.615-3.388-0.931-5.155-0.936l0.026-5.289
			l-0.026,5.289c-1.574-0.01-3.155,0.164-4.697,0.662c-0.578,0.183-1.128,0.475-1.691,0.729c-0.393,0.18-2.366,1.329-2.922,1.761
			c-0.351,0.269-0.71,0.53-1.034,0.828c-0.125,0.121-0.239,0.258-0.363,0.384c-0.694,0.686-1.316,1.426-1.857,2.221
			c-1.098,1.614-1.864,3.404-2.284,5.293c-0.373,1.71-0.483,3.484-0.249,5.252c0.151,1.118,0.459,2.226,0.872,3.312
			c0.153,0.412,0.336,0.814,0.53,1.209c0.118,0.238,0.196,0.475,0.317,0.705c0.049,0.086,0.065,0.177,0.112,0.256
			c1.089,1.912,2.549,3.48,4.204,4.699c1.84,1.352,3.938,2.217,6.15,2.641c2.104,0.41,4.277,0.361,6.415-0.16
			c1.338-0.327,2.664-0.775,3.927-1.488l0.007-0.004c0.922-0.527,1.767-1.146,2.542-1.822c0.684-0.605,1.3-1.273,1.856-1.975
			c1.381-1.756,2.319-3.774,2.824-5.919v-0.003c0.399-1.713,0.553-3.48,0.34-5.257c-0.026-0.259-0.076-0.51-0.128-0.775
			C40.509,22.266,40.254,21.405,39.949,20.568z"/>
		<path fill="#C22F30" d="M15.071,14.943c0.124-0.125,0.238-0.263,0.363-0.384l-7.151-7.75c-0.282,0.26-0.38,0.347-0.648,0.612
			c-1.116,1.116-2.264,2.487-3.149,3.79l8.728,5.953C13.754,16.369,14.377,15.628,15.071,14.943z"/>
		<path fill="#F4B626" d="M13.214,17.164l-8.728-5.953c-2.005,2.942-3.121,5.519-3.871,8.993l0,0l10.315,2.252
			C11.35,20.568,12.116,18.778,13.214,17.164z"/>
		<path fill="#E95F2C" d="M10.93,22.457L0.615,20.205H0.608c-0.67,3.096-0.785,5.783-0.353,8.915l10.426-1.41
			C10.447,25.941,10.558,24.167,10.93,22.457z"/>
		<path fill="#C22F30" d="M10.681,27.709l-10.426,1.41H0.249c0.261,1.946,0.733,3.786,1.43,5.639l9.874-3.737
			C11.14,29.935,10.833,28.827,10.681,27.709z"/>
		<path fill="#EC5F2C" d="M11.553,31.021l-9.874,3.737c0.274,0.72,0.546,1.354,0.88,2.056l9.524-4.584
			C11.889,31.835,11.706,31.433,11.553,31.021z"/>
		<path fill="#C22F30" d="M12.083,32.229l-9.524,4.584c0.226,0.451,0.445,0.899,0.69,1.324c3.018-1.715,5.937-3.373,9.15-5.203
			C12.279,32.704,12.201,32.468,12.083,32.229z"/>
		<path fill="#F4B626" d="M12.512,33.19c-0.046-0.079-0.063-0.17-0.112-0.256c-3.213,1.83-6.133,3.488-9.15,5.203
			c1.804,3.297,4.149,5.953,7.245,8.229l6.221-8.477C15.061,36.671,13.601,35.103,12.512,33.19z"/>
		<path fill="#C22F30" d="M16.716,37.89l-6.221,8.477l0.004,0.006c3.112,2.279,6.414,3.79,9.87,4.52
			c0.829-3.455,1.663-6.905,2.498-10.361C20.654,40.106,18.556,39.241,16.716,37.89z"/>
		<path fill="#F4B626" d="M22.866,40.53c-0.835,3.456-1.669,6.906-2.498,10.361c3.643,0.779,7.462,0.697,11.415-0.271l-2.502-10.25
			C27.144,40.892,24.97,40.94,22.866,40.53z"/>
		<path fill="#C22F30" d="M33.214,38.878c1.722,3.03,3.439,6.06,5.19,9.141c1.538-0.863,2.981-1.883,4.317-3.081
			c-2.327-2.633-4.638-5.253-6.965-7.882C34.981,37.732,34.136,38.351,33.214,38.878z"/>
		<path fill="#E95F2C" d="M33.208,38.882c-1.263,0.713-2.588,1.161-3.927,1.488l2.502,10.25c2.4-0.582,4.599-1.457,6.622-2.602
			c-1.751-3.081-3.469-6.11-5.19-9.141L33.208,38.882z"/>
		<path fill="#F4B626" d="M35.757,37.056c2.327,2.629,4.638,5.249,6.965,7.882c1.109-1.003,2.149-2.108,3.125-3.347l-8.234-6.51
			C37.057,35.782,36.44,36.45,35.757,37.056z"/>
		<path fill="#C22F30" d="M37.613,35.081l8.234,6.51c2.455-3.107,3.93-6.162,4.844-10.002l-10.253-2.427
			C39.932,31.307,38.994,33.325,37.613,35.081z"/>
		<path fill="#F4B626" d="M51.201,22.675l-10.424,1.227c0.213,1.777,0.059,3.544-0.34,5.257l10.246,2.421l0.008,0.009
			C51.406,28.501,51.564,25.824,51.201,22.675z"/>
		<polygon fill="#8F9393" points="40.437,29.159 40.437,29.162 50.69,31.589 50.683,31.58 		"/>
		<path fill="#C22F30" d="M40.777,23.902l10.424-1.227c-0.049-0.374-0.132-0.953-0.197-1.326l-10.355,1.777
			C40.702,23.392,40.751,23.644,40.777,23.902z"/>
		<path fill="#EC5F2C" d="M40.649,23.127l10.355-1.777c-0.265-1.551-0.609-2.848-1.139-4.33l-9.916,3.548
			C40.254,21.405,40.509,22.266,40.649,23.127z"/>
		<path fill="#F4B626" d="M39.949,20.568l9.916-3.548c-0.658-1.854-1.289-3.158-2.321-4.837l-8.977,5.537
			C38.67,17.887,39.662,19.762,39.949,20.568z"/>
		<path fill="#EC5F2C" d="M38.568,17.72l8.977-5.537c-1.036-1.676-2.218-3.152-3.606-4.556l-7.504,7.416
			C37.229,15.849,37.953,16.726,38.568,17.72z"/>
		<path fill="#C22F30" d="M34.372,13.354c0.724,0.507,1.428,1.051,2.062,1.688l7.504-7.416c-1.047-1.057-2.111-1.934-3.214-2.737
			c-1.6,2.119-3.216,4.226-4.788,6.347C35.407,11.944,34.887,12.648,34.372,13.354z"/>
		<path fill="#EC5F2C" d="M34.372,13.354c0.515-0.707,1.035-1.411,1.565-2.117c1.571-2.121,3.188-4.228,4.788-6.347
			c-1.845-1.342-3.796-2.437-6.12-3.295l-3.671,9.92C32.15,11.963,33.298,12.602,34.372,13.354z"/>
		<path fill="#F4B626" d="M25.805,5.291l-0.026,5.289c1.767,0.005,3.502,0.321,5.155,0.936l3.671-9.92
			C31.637,0.496,28.989,0.015,25.831,0l0,0l0,0L25.805,5.291z"/>
		<path fill="#E95F2C" d="M25.779,10.579l0.026-5.289L25.831,0l0,0c-2.765-0.012-5.311,0.369-7.942,1.212l3.193,10.028
			C22.624,10.743,24.205,10.569,25.779,10.579z"/>
		<path fill="#C22F30" d="M21.082,11.241L17.888,1.213c-1.119,0.363-1.849,0.645-2.922,1.134l4.425,9.624
			C19.953,11.715,20.503,11.423,21.082,11.241z"/>
		<path fill="#F4B626" d="M19.391,11.97l-4.425-9.624c-1.793,0.83-3.42,1.802-4.971,3.015l6.474,8.37
			C17.024,13.299,18.998,12.15,19.391,11.97z"/>
		<path fill="#E95F2C" d="M16.468,13.731l-6.474-8.37C9.373,5.834,8.855,6.279,8.283,6.809l7.151,7.75
			C15.758,14.261,16.118,14,16.468,13.731z"/>
	</g>
	<g>
		<g>
			<g>
				<path fill="#C22F30" d="M59.196,37.635c-0.937,0-1.584-0.104-2.183-0.21v-2.904c0.419,0.152,0.992,0.258,1.61,0.258
					c1.224,0,1.924-0.524,1.924-2.42V14.718h3.381v17.769C63.928,35.376,62.756,37.635,59.196,37.635z"/>
				<path fill="#C22F30" d="M76.426,32.28c0-0.6,0.022-1.584,0.151-2.311l-0.053-0.027c-0.756,1.534-2.258,2.6-4.362,2.6
					c-2.933,0-3.872-1.871-3.872-4.131V21.89c-0.625-0.103-1.486-0.213-2.235-0.258v-2.079c1.715-0.212,3.767-0.288,5.561-0.235
					v8.287c0,1.351,0.362,2.155,1.583,2.155c1.689,0,3.015-1.921,3.015-4.182V19.34h3.302v10.368
					c0.625,0.104,1.505,0.209,2.261,0.262v2.075C80.141,32.257,78.138,32.336,76.426,32.28z"/>
				<path fill="#C22F30" d="M100.245,32.257v-8.183c0-1.38-0.308-2.237-1.531-2.237c-1.457,0-2.962,1.712-2.962,4.238v6.182h-3.273
					v-8.183c0-1.278-0.258-2.237-1.535-2.237c-1.532,0-2.962,1.818-2.962,4.238v6.182H84.68V21.89
					c-0.623-0.103-1.502-0.213-2.258-0.258v-2.079c1.636-0.212,3.666-0.288,5.38-0.235c0,0.624-0.056,1.584-0.157,2.34h0.026
					c0.781-1.587,2.339-2.602,4.261-2.602c2.284,0,3.246,1.351,3.561,2.602c0.599-1.276,2.025-2.602,4.206-2.602
					c2.5,0,3.877,1.381,3.877,4.316v8.885H100.245z"/>
				<path fill="#C22F30" d="M105.755,21.631v-2.079c1.637-0.212,3.609-0.288,5.325-0.235c0,0.648-0.029,1.505-0.131,2.18h0.053
					c0.722-1.506,2.104-2.416,4.05-2.416c3.064,0,4.73,2.209,4.73,6.028c0,4.497-2.334,7.325-6.808,7.325
					c-0.624,0-1.118-0.023-1.662-0.099v6.183h-3.306V21.89C107.392,21.787,106.501,21.677,105.755,21.631z M114.091,21.811
					c-1.74,0-2.778,2.026-2.778,4.235v3.588c0.517,0.152,1.063,0.229,1.741,0.229c1.896,0,3.246-1.191,3.246-4.389
					C116.3,23.055,115.597,21.811,114.091,21.811z"/>
				<path fill="#C22F30" d="M125.781,32.542c-1.246,0-2.49-0.131-3.58-0.416l0.199-3.145c0.992,0.342,2.396,0.625,3.673,0.625
					c1.708,0,3.037-0.701,3.037-2.316c0-3.352-7.356-1.817-7.356-7.583c0-3.117,2.467-5.279,6.68-5.279
					c0.991,0,2.13,0.134,3.166,0.317l-0.176,2.96c-0.988-0.287-2.078-0.47-3.143-0.47c-1.953,0-2.939,0.884-2.939,2.131
					c0,3.148,7.377,1.973,7.377,7.461C132.718,30.124,130.095,32.542,125.781,32.542z"/>
				<path fill="#C22F30" d="M139.916,32.519c-2.859,0-3.741-1.042-3.741-4.058v-6.548h-2.235V19.34h2.211v-3.97l3.324-0.89v4.86
					h3.143v2.572h-3.143v5.668c0,1.662,0.393,2.127,1.531,2.127c0.546,0,1.142-0.074,1.611-0.206v2.673
					C141.789,32.389,140.826,32.519,139.916,32.519z"/>
				<path fill="#C22F30" d="M152.23,32.28c0-0.748,0.027-1.533,0.125-2.209l-0.02-0.025c-0.626,1.453-2.213,2.473-4.133,2.473
					c-2.34,0-3.688-1.328-3.688-3.406c0-3.093,3.069-4.729,7.458-4.729v-0.702c0-1.354-0.652-2.05-2.526-2.05
					c-1.165,0-2.723,0.386-3.815,1.008l-0.285-2.775c1.299-0.472,2.962-0.809,4.625-0.809c4.156,0,5.328,1.662,5.328,4.493v6.159
					c0.621,0.104,1.508,0.209,2.258,0.262v2.075C155.919,32.257,153.919,32.336,152.23,32.28z M151.972,26.543
					c-3.509,0-4.291,1.009-4.291,2.05c0,0.83,0.572,1.377,1.538,1.377c1.634,0,2.753-1.559,2.753-3.122V26.543z"/>
				<path fill="#C22F30" d="M163.132,21.942h0.052c0.625-1.643,1.876-3.066,4.108-2.886l-0.158,3.272
					c-2.392-0.491-3.58,1.07-3.58,4.653v5.275h-3.307V21.89c-0.624-0.103-1.504-0.213-2.258-0.258v-2.079
					c1.634-0.212,3.645-0.288,5.377-0.235C163.367,19.991,163.29,21.031,163.132,21.942z"/>
				<path fill="#C22F30" d="M174.419,32.519c-2.857,0-3.737-1.042-3.737-4.058v-6.548h-2.238V19.34h2.212v-3.97l3.324-0.89v4.86
					h3.146v2.572h-3.146v5.668c0,1.662,0.395,2.127,1.533,2.127c0.547,0,1.141-0.074,1.612-0.206v2.673
					C176.294,32.389,175.332,32.519,174.419,32.519z"/>
			</g>
		</g>
		<path fill="#C22F30" d="M186.779,14.389c-0.765-0.297-1.638-0.479-2.532-0.479c-1.886,0-3.239,1.187-3.239,3.325
			c0,2.021,1.102,3.212,3.044,3.212c0.445,0,0.848-0.057,1.214-0.168v-3.325h1.838v4.558c-0.947,0.379-2.119,0.589-3.268,0.589
			c-3.027,0-4.824-1.784-4.824-4.697c0-2.998,2.039-5.138,5.351-5.138c0.942,0,1.882,0.173,2.699,0.413L186.779,14.389z"/>
		<path fill="#C22F30" d="M194.733,18.732h-4.355c-0.017,1.32,0.635,1.957,1.937,1.957c0.695,0,1.443-0.157,2.057-0.44l0.162,1.399
			c-0.749,0.294-1.636,0.452-2.513,0.452c-2.235,0-3.483-1.117-3.483-3.594c0-2.153,1.186-3.732,3.3-3.732
			c2.045,0,2.956,1.397,2.956,3.137C194.792,18.154,194.776,18.437,194.733,18.732z M191.778,16.1c-0.749,0-1.271,0.553-1.371,1.401
			h2.585C193.019,16.624,192.538,16.1,191.778,16.1z"/>
	</g>
</g>
</svg>
