<?xml version="1.0" encoding="utf-8"?>
<!-- Generator: Adobe Illustrator 16.0.0, SVG Export Plug-In . SVG Version: 6.00 Build 0)  -->
<!DOCTYPE svg PUBLIC "-//W3C//DTD SVG 1.1//EN" "http://www.w3.org/Graphics/SVG/1.1/DTD/svg11.dtd">
<svg version="1.1" id="Layer_1" xmlns="http://www.w3.org/2000/svg" xmlns:xlink="http://www.w3.org/1999/xlink" x="0px" y="0px"
	 width="118.375px" height="32.771px" viewBox="0 0 118.375 32.771" enable-background="new 0 0 118.375 32.771"
	 xml:space="preserve">
<g>
	<g>
		<path fill="none" d="M25.241,3.834c-0.955,1.265-1.92,2.522-2.857,3.788C23.321,6.356,24.286,5.099,25.241,3.834z"/>
		<path fill="none" d="M24.778,13.19c-0.172-0.48-0.764-1.6-0.824-1.699c-0.367-0.594-0.799-1.117-1.273-1.598
			c-0.379-0.381-0.799-0.705-1.23-1.008c-0.641-0.449-1.326-0.83-2.053-1.098c-0.986-0.367-2.021-0.556-3.076-0.559l0.016-3.156
			l-0.016,3.156c-0.939-0.006-1.883,0.098-2.803,0.395c-0.346,0.109-0.674,0.283-1.01,0.436c-0.234,0.107-1.412,0.793-1.744,1.051
			c-0.209,0.16-0.424,0.316-0.617,0.494c-0.074,0.072-0.143,0.154-0.217,0.229c-0.414,0.409-0.785,0.851-1.107,1.325
			c-0.656,0.963-1.113,2.031-1.363,3.159c-0.223,1.021-0.289,2.079-0.148,3.134c0.09,0.668,0.273,1.328,0.52,1.977
			c0.092,0.246,0.201,0.486,0.316,0.722c0.07,0.142,0.117,0.283,0.189,0.421c0.029,0.051,0.039,0.105,0.066,0.152
			c0.65,1.142,1.521,2.077,2.51,2.805c1.098,0.807,2.35,1.323,3.67,1.576c1.256,0.244,2.553,0.215,3.828-0.096
			c0.799-0.195,1.59-0.463,2.344-0.889l0.004-0.002c0.551-0.314,1.055-0.684,1.518-1.088c0.408-0.361,0.775-0.76,1.107-1.178
			c0.824-1.049,1.385-2.253,1.686-3.533v-0.002c0.238-1.021,0.33-2.076,0.203-3.137c-0.016-0.154-0.045-0.305-0.076-0.463
			C25.112,14.204,24.959,13.69,24.778,13.19z"/>
		<path fill="#C22E30" d="M9.93,9.834c0.074-0.075,0.143-0.157,0.217-0.229L5.879,4.979C5.711,5.135,5.653,5.187,5.493,5.345
			C4.827,6.011,4.141,6.829,3.614,7.606l5.209,3.553C9.145,10.685,9.516,10.243,9.93,9.834z"/>
		<path fill="#F4B62A" d="M8.823,11.159L3.614,7.606C2.417,9.362,1.75,10.9,1.303,12.974l0,0l6.156,1.345
			C7.709,13.19,8.167,12.122,8.823,11.159z"/>
		<path fill="#E95D2E" d="M7.459,14.318l-6.156-1.345H1.299c-0.4,1.848-0.469,3.451-0.211,5.32l6.223-0.842
			C7.17,16.397,7.237,15.339,7.459,14.318z"/>
		<path fill="#C22E30" d="M7.311,17.452l-6.223,0.842H1.084c0.156,1.162,0.438,2.26,0.854,3.365l5.893-2.23
			C7.584,18.78,7.401,18.12,7.311,17.452z"/>
		<path fill="#ED5E2C" d="M7.831,19.429l-5.893,2.23c0.164,0.43,0.326,0.808,0.525,1.227l5.684-2.735
			C8.032,19.915,7.922,19.675,7.831,19.429z"/>
		<path fill="#C22E30" d="M8.147,20.15l-5.684,2.735c0.135,0.27,0.266,0.537,0.412,0.791c1.801-1.023,3.543-2.014,5.461-3.105
			C8.264,20.434,8.217,20.292,8.147,20.15z"/>
		<path fill="#F4B62A" d="M8.403,20.724c-0.027-0.047-0.037-0.102-0.066-0.152c-1.918,1.092-3.66,2.082-5.461,3.105
			c1.076,1.967,2.477,3.553,4.324,4.91l3.713-5.059C9.924,22.801,9.053,21.865,8.403,20.724z"/>
		<path fill="#C22E30" d="M10.913,23.528L7.2,28.587l0.002,0.004c1.857,1.36,3.828,2.262,5.891,2.697
			c0.494-2.062,0.992-4.121,1.49-6.184C13.262,24.852,12.01,24.335,10.913,23.528z"/>
		<path fill="#F4B62A" d="M14.583,25.104c-0.498,2.062-0.996,4.121-1.49,6.184c2.174,0.465,4.453,0.416,6.812-0.162l-1.494-6.117
			C17.135,25.319,15.838,25.349,14.583,25.104z"/>
		<path fill="#C22E30" d="M20.758,24.118c1.027,1.809,2.053,3.616,3.098,5.455c0.918-0.516,1.779-1.124,2.576-1.839
			c-1.389-1.571-2.768-3.135-4.156-4.704C21.813,23.435,21.309,23.804,20.758,24.118z"/>
		<path fill="#E95D2E" d="M20.754,24.12c-0.754,0.426-1.545,0.693-2.344,0.889l1.494,6.117c1.432-0.348,2.744-0.869,3.951-1.553
			c-1.045-1.839-2.07-3.646-3.098-5.455L20.754,24.12z"/>
		<path fill="#F4B62A" d="M22.276,23.03c1.389,1.569,2.768,3.133,4.156,4.704c0.662-0.599,1.283-1.259,1.865-1.997l-4.914-3.885
			C23.051,22.271,22.684,22.669,22.276,23.03z"/>
		<path fill="#C22E30" d="M23.383,21.853l4.914,3.885c1.465-1.854,2.346-3.678,2.891-5.97l-6.119-1.448
			C24.768,19.6,24.208,20.804,23.383,21.853z"/>
		<path fill="#F4B62A" d="M31.493,14.448l-6.221,0.732c0.127,1.061,0.035,2.115-0.203,3.137l6.115,1.445l0.004,0.005
			C31.616,17.925,31.709,16.327,31.493,14.448z"/>
		<polygon fill="#8F9292" points="25.069,18.317 25.069,18.319 31.188,19.768 31.184,19.763 		"/>
		<path fill="#C22E30" d="M25.272,15.181l6.221-0.732c-0.029-0.223-0.078-0.568-0.117-0.791l-6.18,1.061
			C25.227,14.876,25.256,15.026,25.272,15.181z"/>
		<path fill="#ED5E2C" d="M25.196,14.718l6.18-1.061c-0.158-0.926-0.363-1.699-0.68-2.584l-5.918,2.117
			C24.959,13.69,25.112,14.204,25.196,14.718z"/>
		<path fill="#F4B62A" d="M24.778,13.19l5.918-2.117c-0.393-1.106-0.77-1.885-1.385-2.887l-5.357,3.305
			C24.014,11.591,24.606,12.71,24.778,13.19z"/>
		<path fill="#ED5E2C" d="M23.954,11.491l5.357-3.305c-0.619-1-1.324-1.881-2.152-2.719L22.68,9.894
			C23.155,10.374,23.586,10.897,23.954,11.491z"/>
		<path fill="#C22E30" d="M21.45,8.886c0.432,0.303,0.852,0.627,1.23,1.008l4.479-4.426c-0.625-0.631-1.26-1.154-1.918-1.634
			c-0.955,1.265-1.92,2.522-2.857,3.788C22.067,8.044,21.756,8.464,21.45,8.886z"/>
		<path fill="#ED5E2C" d="M21.45,8.886c0.307-0.422,0.617-0.842,0.934-1.264c0.938-1.266,1.902-2.523,2.857-3.788
			c-1.102-0.801-2.266-1.454-3.652-1.967l-2.191,5.921C20.124,8.056,20.809,8.437,21.45,8.886z"/>
		<path fill="#F4B62A" d="M16.336,4.073l-0.016,3.156c1.055,0.003,2.09,0.191,3.076,0.559l2.191-5.921
			c-1.771-0.655-3.352-0.942-5.236-0.951l0,0l0,0L16.336,4.073z"/>
		<path fill="#E95D2E" d="M16.321,7.229l0.016-3.156l0.016-3.157l0,0c-1.65-0.007-3.17,0.22-4.74,0.724l1.906,5.984
			C14.438,7.327,15.381,7.224,16.321,7.229z"/>
		<path fill="#C22E30" d="M13.518,7.624L11.612,1.64c-0.668,0.217-1.104,0.385-1.744,0.677l2.641,5.743
			C12.844,7.907,13.172,7.733,13.518,7.624z"/>
		<path fill="#F4B62A" d="M12.508,8.06L9.868,2.316c-1.07,0.495-2.041,1.075-2.967,1.799l3.863,4.995
			C11.096,8.853,12.274,8.167,12.508,8.06z"/>
		<path fill="#E95D2E" d="M10.764,9.11L6.901,4.115C6.53,4.397,6.221,4.663,5.879,4.979l4.268,4.625
			C10.34,9.427,10.555,9.271,10.764,9.11z"/>
	</g>
	<g>
		<g>
			<g>
				<path fill="#C22E30" d="M36.264,23.376c-0.559,0-0.945-0.062-1.303-0.125v-1.733c0.25,0.091,0.592,0.153,0.961,0.153
					c0.73,0,1.148-0.312,1.148-1.443V9.699h2.017v10.604C39.088,22.028,38.389,23.376,36.264,23.376z"/>
				<path fill="#C22E30" d="M46.547,20.181c0-0.357,0.014-0.945,0.09-1.379l-0.031-0.017c-0.451,0.916-1.348,1.552-2.604,1.552
					c-1.75,0-2.311-1.117-2.311-2.465v-3.893c-0.373-0.062-0.887-0.127-1.334-0.154v-1.24c1.023-0.127,2.248-0.172,3.318-0.141
					v4.945c0,0.807,0.217,1.287,0.945,1.287c1.008,0,1.799-1.146,1.799-2.496v-3.723h1.971v6.188
					c0.373,0.062,0.898,0.125,1.35,0.156v1.238C48.764,20.167,47.568,20.214,46.547,20.181z"/>
				<path fill="#C22E30" d="M60.762,20.167v-4.884c0-0.823-0.184-1.335-0.914-1.335c-0.869,0-1.768,1.021-1.768,2.529v3.689h-1.953
					v-4.884c0-0.763-0.154-1.335-0.916-1.335c-0.914,0-1.768,1.085-1.768,2.529v3.689h-1.971v-6.188
					c-0.371-0.062-0.896-0.127-1.348-0.154v-1.24c0.977-0.127,2.188-0.172,3.211-0.141c0,0.372-0.033,0.945-0.094,1.396h0.016
					c0.467-0.947,1.396-1.553,2.543-1.553c1.363,0,1.938,0.807,2.125,1.553c0.357-0.762,1.209-1.553,2.51-1.553
					c1.492,0,2.314,0.824,2.314,2.576v5.303H60.762z"/>
				<path fill="#C22E30" d="M64.051,13.825v-1.24c0.977-0.127,2.154-0.172,3.178-0.141c0,0.387-0.018,0.898-0.078,1.301h0.031
					c0.432-0.898,1.256-1.441,2.418-1.441c1.828,0,2.822,1.318,2.822,3.598c0,2.684-1.393,4.371-4.062,4.371
					c-0.373,0-0.668-0.014-0.992-0.059v3.689h-1.973v-9.924C65.027,13.918,64.496,13.853,64.051,13.825z M69.025,13.933
					c-1.039,0-1.658,1.209-1.658,2.527v2.142c0.309,0.091,0.635,0.136,1.039,0.136c1.133,0,1.938-0.711,1.938-2.619
					C70.344,14.675,69.924,13.933,69.025,13.933z"/>
				<path fill="#C22E30" d="M76.002,20.337c-0.744,0-1.486-0.078-2.137-0.248l0.119-1.877c0.592,0.204,1.43,0.373,2.191,0.373
					c1.02,0,1.812-0.419,1.812-1.383c0-2-4.391-1.084-4.391-4.525c0-1.86,1.473-3.15,3.986-3.15c0.592,0,1.271,0.08,1.891,0.189
					l-0.105,1.767c-0.59-0.171-1.24-0.28-1.875-0.28c-1.166,0-1.754,0.527-1.754,1.271c0,1.879,4.402,1.178,4.402,4.453
					C80.143,18.894,78.576,20.337,76.002,20.337z"/>
				<path fill="#C22E30" d="M84.438,20.323c-1.707,0-2.232-0.622-2.232-2.422v-3.908h-1.334v-1.535h1.318v-2.369l1.984-0.531v2.9
					h1.875v1.535h-1.875v3.383c0,0.992,0.234,1.27,0.914,1.27c0.326,0,0.682-0.044,0.961-0.123v1.596
					C85.555,20.245,84.98,20.323,84.438,20.323z"/>
				<path fill="#C22E30" d="M91.787,20.181c0-0.446,0.016-0.915,0.074-1.318l-0.012-0.016c-0.373,0.867-1.32,1.477-2.467,1.477
					c-1.396,0-2.201-0.793-2.201-2.033c0-1.846,1.832-2.822,4.451-2.822v-0.419c0-0.808-0.389-1.224-1.508-1.224
					c-0.695,0-1.625,0.23-2.277,0.602l-0.17-1.656c0.775-0.281,1.768-0.482,2.76-0.482c2.48,0,3.18,0.992,3.18,2.682v3.676
					c0.371,0.062,0.9,0.125,1.348,0.156v1.238C93.988,20.167,92.795,20.214,91.787,20.181z M91.633,16.757
					c-2.094,0-2.561,0.602-2.561,1.223c0,0.496,0.342,0.822,0.918,0.822c0.975,0,1.643-0.93,1.643-1.863V16.757z"/>
				<path fill="#C22E30" d="M98.293,14.011h0.031c0.373-0.98,1.119-1.83,2.451-1.723l-0.094,1.953
					c-1.428-0.293-2.137,0.639-2.137,2.777v3.148h-1.973v-6.188c-0.373-0.062-0.898-0.127-1.348-0.154v-1.24
					c0.975-0.127,2.174-0.172,3.209-0.141C98.434,12.847,98.387,13.467,98.293,14.011z"/>
				<path fill="#C22E30" d="M105.029,20.323c-1.705,0-2.23-0.622-2.23-2.422v-3.908h-1.336v-1.535h1.32v-2.369l1.984-0.531v2.9
					h1.877v1.535h-1.877v3.383c0,0.992,0.234,1.27,0.914,1.27c0.326,0,0.682-0.044,0.963-0.123v1.596
					C106.148,20.245,105.574,20.323,105.029,20.323z"/>
			</g>
		</g>
		<path fill="#C22E30" d="M112.406,9.503c-0.457-0.178-0.979-0.286-1.512-0.286c-1.125,0-1.934,0.708-1.934,1.984
			c0,1.206,0.658,1.917,1.816,1.917c0.266,0,0.506-0.034,0.725-0.101v-1.984h1.098v2.72c-0.566,0.227-1.266,0.352-1.951,0.352
			c-1.807,0-2.879-1.064-2.879-2.803c0-1.789,1.217-3.066,3.193-3.066c0.562,0,1.123,0.104,1.611,0.246L112.406,9.503z"/>
		<path fill="#C22E30" d="M117.152,12.095h-2.6c-0.01,0.788,0.379,1.168,1.156,1.168c0.414,0,0.861-0.094,1.227-0.263l0.098,0.835
			c-0.447,0.176-0.977,0.27-1.5,0.27c-1.334,0-2.078-0.666-2.078-2.145c0-1.285,0.707-2.228,1.969-2.228
			c1.221,0,1.764,0.834,1.764,1.872C117.188,11.75,117.178,11.919,117.152,12.095z M115.389,10.524c-0.447,0-0.758,0.33-0.818,0.836
			h1.543C116.129,10.837,115.842,10.524,115.389,10.524z"/>
	</g>
</g>
</svg>
