<?xml version="1.0" encoding="utf-8"?>
<!-- Generator: Adobe Illustrator 16.0.0, SVG Export Plug-In . SVG Version: 6.00 Build 0)  -->
<!DOCTYPE svg PUBLIC "-//W3C//DTD SVG 1.1//EN" "http://www.w3.org/Graphics/SVG/1.1/DTD/svg11.dtd">
<svg version="1.1" id="Layer_1" xmlns="http://www.w3.org/2000/svg" xmlns:xlink="http://www.w3.org/1999/xlink" x="0px" y="0px"
	 width="188.629px" height="102.988px" viewBox="0 0 188.629 102.988" enable-background="new 0 0 188.629 102.988"
	 xml:space="preserve" x="0px" y="0px">
	 <g class='loadingIndicator-image-dial-container'>
		 <g class='loadingIndicator-image-dial'>
			 <path opacity="0.4" fill="#231F20" d="M96.948,83.916c5.264-0.005,9.536,4.264,9.541,9.529c0,2.902-1.292,5.506-3.336,7.255c-1.667,1.428-3.829,2.288-6.194,2.288c-5.268,0.001-70.33-9.492-70.33-9.492S91.679,83.92,96.948,83.916z"/>
		 </g>
	 </g>

	<g opacity="0.4">
		<path fill="#231F20" d="M17.522,93.46c0.467-41.952,34.732-75.938,76.792-75.938s76.327,33.986,76.792,75.938h17.522
			C188.163,41.846,146.037,0,94.314,0C42.593,0,0.467,41.846,0,93.46H17.522z"/>
	</g>
</svg>
