<?xml version="1.0" encoding="utf-8"?>
<!-- Generator: Adobe Illustrator 16.0.0, SVG Export Plug-In . SVG Version: 6.00 Build 0)  -->
<!DOCTYPE svg PUBLIC "-//W3C//DTD SVG 1.1//EN" "http://www.w3.org/Graphics/SVG/1.1/DTD/svg11.dtd">
<svg version="1.1" id="Layer_1" xmlns="http://www.w3.org/2000/svg" xmlns:xlink="http://www.w3.org/1999/xlink" x="0px" y="0px"
	 width="216.932px" height="41.131px" viewBox="0 0 216.932 41.131" enable-background="new 0 0 216.932 41.131"
	 xml:space="preserve">
<g>
	<g>
		<g>
			<path fill="#FFFFFF" d="M191.636,16.263c-1.671-8.831-9.489-15.473-18.671-15.473c-9.259,0-17.88,6.584-19.561,15.419
				c0.867,0,4.553,0,5.422,0c0.927-5.999,6.221-12.989,14.139-12.989c7.848,0,15.379,5.559,17.02,13.027
				C190.81,16.249,190.81,16.253,191.636,16.263z"/>
		</g>
		<path fill="#FFFFFF" d="M25.125,41.131L13.698,26.808h-1.7l1.017-3.459l3.146,0.217c1.275-0.439,2.549-3.155,2.549-5.651
			c0-3.46-1.996-4.732-4.759-4.732c-0.552,0-1.57,0.09-2.591,0.132v22.519l3.696,0.611l0.213,3.242H0.654l0.214-3.242l3.865-0.611
			v-22.17l-4.079-0.61l0.254-3.243h7.903c0,0,6.757-0.261,8.03-0.261c5.141,0,8.752,2.934,8.752,8.059
			c0,3.768-2.294,6.571-4.929,7.316v0.131l9.39,14.718L25.125,41.131z"/>
		<path fill="#FFFFFF" d="M40.338,40.125c-4.929,0-9.857-3.285-9.857-9.9c0-6.876,4.971-10.339,9.518-10.339
			c5.438,0,8.113,3.417,8.113,7.974c0,0.657-0.042,1.354-0.168,2.058H36.982c0,0-0.043,0.175-0.043,0.351
			c0,3.855,2.209,5.564,4.846,5.564c1.696,0,3.695-0.658,5.266-1.929l1.401,2.937C46.414,39.074,43.566,40.125,40.338,40.125z
			 M42.377,26.061c0-1.97-0.892-3.24-2.507-3.24c-1.7,0-2.804,1.623-2.804,4.293l5.312-0.437V26.061z"/>
		<path fill="#FFFFFF" d="M62.601,13.576c-1.445,0-3.355,0.309-4.46,0.745c0,1.052,0.508,4.82,0.764,6.047h4.631v3.593h-4.631
			v12.002l4.419,0.612l0.084,3.111H49.388l0.086-3.111l3.397-0.612V23.96h-3.397l0.125-3.2l3.272-0.611v-0.922
			c0-7.05,4.93-11.083,8.372-11.083c0.72,0,1.528,0.089,1.952,0.174l0.47,5.303C63.324,13.576,62.985,13.576,62.601,13.576z"/>
		<path fill="#FFFFFF" d="M74.754,40.125c-5.439,0-9.901-3.682-9.901-9.64c0-6.482,4.547-10.6,10.623-10.6
			c5.651,0,9.987,3.68,9.987,9.726C85.462,36.271,80.658,40.125,74.754,40.125z M75.178,23.74c-1.829,0-3.655,1.27-3.655,6.222
			c0,4.425,1.658,6.309,3.569,6.309c2.168,0,3.695-1.975,3.695-6.309C78.788,25.361,77.005,23.74,75.178,23.74z"/>
		<path fill="#FFFFFF" d="M102.456,26.59l-2.593-0.661c-1.231,0-2.846,0.748-3.736,1.972v8.062l4.46,0.612l0.082,3.111H86.651
			l0.084-3.111l3.401-0.612v-9.637l-2.635-3.68v-1.271l8.074-1.225l-0.172,4.904c2.169-4.467,3.783-5.168,5.908-5.168
			c0.552,0,1.061,0.042,1.571,0.218L102.456,26.59z"/>
		<path fill="#FFFFFF" d="M130.285,39.686l0.214-3.242l4.503-0.611c-0.511-5.652-0.893-14.149-1.02-18.971
			c-2.041,4.601-6.033,15.247-8.198,22.825h-5.61c-2.038-6.877-5.736-17.655-8.114-22.866c-0.086,4.687-0.552,14.629-0.852,19.013
			l4.079,0.611l0.169,3.242h-12.15l0.212-3.242l3.655-0.611c0.677-6.921,1.443-18.445,1.487-22.17l-3.911-0.522l0.256-3.331h10.835
			c2.548,5.476,6.162,14.677,8.538,22.211c1.659-5.562,6.374-16.996,8.925-22.211h10.748l0.214,3.331l-4.123,0.522
			c0.042,5.831,0.721,15.643,1.404,22.17l3.992,0.611l0.212,3.242H130.285z"/>
		<path fill="#FFFFFF" d="M156.883,40.125c-4.927,0-9.855-3.285-9.855-9.9c0-6.876,4.972-10.339,9.517-10.339
			c5.439,0,8.115,3.417,8.115,7.974c0,0.657-0.042,1.354-0.171,2.058h-10.96c0,0-0.043,0.175-0.043,0.351
			c0,3.855,2.209,5.564,4.843,5.564c1.701,0,3.697-0.658,5.269-1.929L165,36.84C162.961,39.074,160.114,40.125,156.883,40.125z
			 M158.925,26.061c0-1.97-0.892-3.24-2.508-3.24c-1.7,0-2.803,1.623-2.803,4.293l5.311-0.437V26.061z"/>
		<path fill="#FFFFFF" d="M175.41,40.125c-3.949,0-6.333-1.974-6.333-6.702V23.96h-3.398v-2.981l4.676-1.627l6.968-12.331h0.607
			l-2.829,12.331l0.013,1.016h4.756v3.593h-4.756v8.806c0,2.103,0.933,3.152,2.547,3.152c0.81,0,1.616-0.218,2.209-0.438
			l0.596,3.639C179.188,39.771,177.194,40.125,175.41,40.125z"/>
		<path fill="#FFFFFF" d="M191.171,40.125c-4.927,0-9.854-3.285-9.854-9.9c0-6.876,4.971-10.339,9.515-10.339
			c5.439,0,8.115,3.417,8.115,7.974c0,0.657-0.044,1.354-0.169,2.058h-10.962c0,0-0.042,0.175-0.042,0.351
			c0,3.855,2.209,5.564,4.841,5.564c1.702,0,3.7-0.658,5.27-1.929l1.402,2.937C197.249,39.074,194.401,40.125,191.171,40.125z
			 M193.211,26.061c0-1.97-0.89-3.24-2.505-3.24c-1.7,0-2.804,1.623-2.804,4.293l5.309-0.437V26.061z"/>
		<path fill="#FFFFFF" d="M216.069,26.59l-2.592-0.661c-1.23,0-2.846,0.748-3.736,1.972v8.062l4.458,0.612l0.086,3.111h-14.021
			l0.086-3.111l3.399-0.612v-9.637l-2.635-3.68v-1.271l8.071-1.225l-0.168,4.904c2.17-4.467,3.781-5.168,5.904-5.168
			c0.552,0,1.062,0.042,1.574,0.218L216.069,26.59z"/>
	</g>
</g>
</svg>
