<?xml version="1.0" encoding="utf-8"?>
<!-- Generator: Adobe Illustrator 16.0.0, SVG Export Plug-In . SVG Version: 6.00 Build 0)  -->
<!DOCTYPE svg PUBLIC "-//W3C//DTD SVG 1.1//EN" "http://www.w3.org/Graphics/SVG/1.1/DTD/svg11.dtd">
<svg version="1.1" id="Layer_1" xmlns="http://www.w3.org/2000/svg" xmlns:xlink="http://www.w3.org/1999/xlink" x="0px" y="0px"
	 width="216.932px" height="46.213px" viewBox="0 0 216.932 46.213" enable-background="new 0 0 216.932 46.213"
	 xml:space="preserve">
<g>
	<path fill="#FFFFFF" d="M11.386,17.954c-0.772,0-1.513,0.122-2.229,0.364C8.439,18.56,7.771,18.89,7.149,19.31
		c-0.62,0.417-1.185,0.904-1.69,1.463c-0.506,0.558-0.937,1.151-1.299,1.78c0.441-0.321,0.938-0.587,1.486-0.799
		c0.551-0.212,1.113-0.315,1.686-0.315c0.51,0,0.986,0.071,1.432,0.218c0.445,0.143,0.859,0.338,1.24,0.585
		c0.38,0.247,0.729,0.541,1.043,0.883c0.315,0.341,0.599,0.708,0.85,1.099c0.238-0.391,0.513-0.757,0.818-1.099
		c0.305-0.342,0.645-0.636,1.014-0.883s0.771-0.442,1.202-0.585c0.43-0.147,0.89-0.218,1.38-0.218c1.063,0,2.043,0.185,2.945,0.557
		c0.902,0.373,1.68,0.914,2.334,1.628c0.658,0.712,1.17,1.577,1.541,2.599c0.371,1.022,0.556,2.183,0.556,3.484
		c0,0.92-0.123,1.85-0.368,2.786c-0.244,0.942-0.615,1.831-1.111,2.671c-0.496,0.843-1.113,1.607-1.856,2.294
		c-0.739,0.686-1.6,1.231-2.58,1.633h-2.494v-2.788c0.62,0,1.138-0.104,1.556-0.314c0.414-0.213,0.748-0.552,0.998-1.017
		c0.246-0.464,0.428-1.069,0.532-1.818c0.105-0.749,0.158-1.661,0.158-2.735c0-0.875-0.019-1.693-0.053-2.453
		c-0.036-0.758-0.126-1.416-0.271-1.973c-0.146-0.561-0.371-0.997-0.676-1.316c-0.306-0.319-0.729-0.481-1.27-0.481
		c-0.27,0-0.563,0.069-0.881,0.205c-0.313,0.133-0.603,0.354-0.868,0.664c-0.267,0.308-0.49,0.722-0.669,1.237
		c-0.182,0.516-0.27,1.15-0.27,1.904v1.115c0,0.422,0.063,0.834,0.195,1.232c0.131,0.396,0.318,0.797,0.57,1.197v1.021H9.568v-1.053
		c0.238-0.402,0.41-0.798,0.51-1.191c0.1-0.391,0.152-0.795,0.152-1.207v-1.115c0-0.773-0.086-1.416-0.255-1.927
		c-0.173-0.512-0.382-0.922-0.634-1.231c-0.25-0.312-0.52-0.529-0.811-0.657c-0.291-0.13-0.559-0.195-0.811-0.195
		c-0.961,0-1.658,0.487-2.096,1.456c-0.438,0.97-0.653,2.45-0.653,4.444c0,1.044,0.094,1.953,0.286,2.732
		c0.188,0.778,0.455,1.429,0.795,1.943c0.34,0.517,0.737,0.901,1.194,1.153c0.456,0.254,0.954,0.379,1.493,0.379v2.788H6.082
		c-0.892-0.361-1.705-0.883-2.447-1.563c-0.74-0.683-1.381-1.449-1.922-2.299c-0.541-0.852-0.963-1.754-1.264-2.703
		S0,30.645,0,29.738c0-0.735,0.049-1.558,0.148-2.47c0.102-0.915,0.279-1.858,0.543-2.836c0.259-0.973,0.623-1.947,1.09-2.917
		c0.465-0.97,1.062-1.88,1.795-2.733c0.729-0.854,1.611-1.614,2.643-2.293c1.03-0.676,2.248-1.205,3.648-1.585
		c0.892-0.239,1.708-0.448,2.449-0.626c0.74-0.182,1.402-0.368,1.982-0.56c0.58-0.191,1.076-0.4,1.486-0.628
		c0.412-0.227,0.732-0.511,0.963-0.849h2.434c-0.062,0.215-0.146,0.508-0.256,0.874c-0.111,0.366-0.279,0.761-0.504,1.186
		c-0.225,0.423-0.52,0.851-0.885,1.285c-0.367,0.433-0.825,0.826-1.383,1.176c-0.555,0.352-1.224,0.639-2.005,0.861
		C13.367,17.843,12.446,17.954,11.386,17.954z"/>
	<path fill="#FFFFFF" d="M40.648,38.95c0,1.136-0.168,2.15-0.504,3.044c-0.334,0.895-0.829,1.655-1.48,2.283
		c-0.649,0.631-1.463,1.111-2.441,1.44c-0.975,0.33-2.1,0.495-3.371,0.495c-0.811,0-1.576-0.097-2.291-0.294
		c-0.716-0.194-1.373-0.464-1.975-0.806c-0.6-0.339-1.139-0.738-1.613-1.193c-0.479-0.452-0.88-0.938-1.209-1.455
		c-0.332-0.515-0.585-1.046-0.76-1.595c-0.175-0.546-0.262-1.084-0.262-1.609c0-0.662,0.102-1.25,0.308-1.775
		c0.205-0.52,0.474-0.977,0.81-1.366c0.338-0.395,0.717-0.729,1.143-1.009c0.424-0.277,0.863-0.511,1.312-0.695
		c0.452-0.188,0.895-0.334,1.331-0.442c0.435-0.107,0.823-0.185,1.163-0.225l0.479,1.549c-0.156,0.133-0.324,0.317-0.502,0.548
		c-0.174,0.232-0.334,0.516-0.479,0.846c-0.146,0.33-0.268,0.712-0.361,1.145c-0.096,0.434-0.143,0.921-0.143,1.457
		c0,1.456,0.232,2.523,0.699,3.203c0.463,0.684,1.225,1.024,2.273,1.024c1.043,0,1.777-0.329,2.209-0.983
		c0.432-0.656,0.645-1.624,0.645-2.903V26.889c0-0.567-0.066-1.03-0.202-1.386c-0.136-0.357-0.321-0.633-0.563-0.828
		c-0.239-0.197-0.53-0.329-0.869-0.396c-0.342-0.066-0.711-0.101-1.113-0.101c-0.357,0-0.695,0.051-1.007,0.156
		c-0.309,0.104-0.578,0.259-0.81,0.47c-0.229,0.214-0.414,0.482-0.549,0.814c-0.135,0.329-0.202,0.721-0.202,1.177
		c0,0.229,0.028,0.436,0.091,0.625c0.061,0.191,0.156,0.375,0.293,0.552c0.135,0.176,0.314,0.346,0.541,0.509
		c0.223,0.168,0.498,0.337,0.818,0.512l-1.772,3.346c-0.633-0.215-1.196-0.525-1.698-0.929s-0.921-0.843-1.262-1.316
		c-0.34-0.474-0.602-0.958-0.781-1.448s-0.271-0.932-0.271-1.321c0-1.076,0.194-1.987,0.578-2.736
		c0.386-0.745,0.896-1.355,1.532-1.818c0.635-0.465,1.371-0.804,2.201-1.016c0.83-0.212,1.697-0.315,2.6-0.315
		c1.17,0,2.216,0.138,3.137,0.409c0.922,0.273,1.703,0.674,2.344,1.193c0.643,0.521,1.131,1.163,1.473,1.928
		c0.34,0.763,0.512,1.642,0.512,2.632V38.95z"/>
	<path fill="#FFFFFF" d="M65.703,39.508c0,1.003-0.207,1.915-0.623,2.74c-0.414,0.827-0.995,1.534-1.742,2.121
		c-0.746,0.591-1.637,1.043-2.667,1.364c-1.03,0.319-2.169,0.479-3.409,0.479c-1.802,0-3.293-0.157-4.469-0.471
		c-1.176-0.316-2.113-0.727-2.809-1.233c-0.695-0.505-1.182-1.073-1.457-1.703c-0.275-0.628-0.412-1.264-0.412-1.904
		c0-0.277,0.068-0.562,0.21-0.852c0.141-0.289,0.397-0.572,0.774-0.852c0.376-0.277,0.889-0.549,1.537-0.811
		c0.651-0.266,1.487-0.506,2.51-0.723v3.236c0,0.422,0.074,0.808,0.226,1.154c0.149,0.346,0.386,0.643,0.713,0.891
		c0.327,0.247,0.737,0.439,1.24,0.573c0.499,0.134,1.101,0.201,1.802,0.201c0.469,0,0.902-0.078,1.291-0.233
		c0.391-0.154,0.729-0.374,1.014-0.656c0.285-0.283,0.508-0.633,0.668-1.047c0.16-0.412,0.242-0.875,0.242-1.392v-1.828
		c0-0.908-0.129-1.599-0.385-2.067c-0.254-0.471-0.708-0.705-1.359-0.705h-0.541v-2.075h0.527c0.4,0,0.74-0.095,1.02-0.286
		c0.281-0.191,0.508-0.504,0.678-0.938c0.17-0.431,0.293-1.001,0.369-1.71c0.072-0.706,0.111-1.58,0.111-2.624
		c0-0.663-0.03-1.241-0.091-1.74c-0.06-0.502-0.169-0.918-0.329-1.249c-0.16-0.33-0.383-0.578-0.662-0.744
		c-0.279-0.162-0.641-0.246-1.082-0.246c-0.26,0-0.496,0.015-0.705,0.045c-0.209,0.033-0.414,0.086-0.609,0.165
		c-0.193,0.075-0.389,0.182-0.584,0.317c-0.195,0.133-0.414,0.3-0.654,0.494h0.03c0.13,0.186,0.265,0.406,0.406,0.658
		c0.14,0.252,0.263,0.532,0.372,0.837c0.113,0.306,0.203,0.638,0.273,0.999c0.068,0.361,0.104,0.746,0.104,1.162
		c0,0.99-0.096,1.855-0.285,2.591c-0.189,0.738-0.449,1.371-0.779,1.899c-0.33,0.524-0.725,0.962-1.18,1.307
		c-0.457,0.349-0.951,0.619-1.488,0.82c-0.534,0.202-1.102,0.341-1.695,0.419c-0.597,0.077-1.199,0.114-1.812,0.114
		c-1.122,0-2.135-0.192-3.039-0.579c-0.906-0.388-1.684-0.908-2.33-1.562c-0.645-0.656-1.142-1.419-1.494-2.286
		c-0.351-0.866-0.525-1.784-0.525-2.754c0-1.022,0.175-1.983,0.525-2.883c0.353-0.896,0.854-1.68,1.51-2.345
		c0.656-0.665,1.453-1.193,2.389-1.579c0.937-0.387,1.989-0.58,3.164-0.58c0.337,0,0.707,0.029,1.102,0.094
		c0.396,0.061,0.793,0.16,1.185,0.293c0.397,0.132,0.784,0.31,1.165,0.535c0.383,0.221,0.723,0.485,1.021,0.796
		c0.312-0.301,0.646-0.558,1.008-0.774c0.36-0.217,0.72-0.396,1.082-0.535c0.36-0.139,0.707-0.24,1.041-0.31
		c0.338-0.066,0.635-0.099,0.896-0.099c1.081,0,2.071,0.17,2.966,0.508c0.896,0.341,1.668,0.82,2.312,1.434
		c0.646,0.615,1.152,1.347,1.511,2.201c0.36,0.851,0.54,1.788,0.54,2.809c0,0.919-0.117,1.725-0.352,2.415
		c-0.234,0.692-0.557,1.291-0.963,1.798c-0.404,0.505-0.883,0.93-1.432,1.275c-0.553,0.349-1.144,0.634-1.773,0.863
		c0.601,0.164,1.156,0.365,1.668,0.603c0.508,0.237,0.953,0.538,1.328,0.904c0.375,0.364,0.672,0.816,0.884,1.348
		C65.593,38.128,65.703,38.767,65.703,39.508z M52.547,28.825c0-0.89-0.037-1.634-0.115-2.232c-0.074-0.597-0.203-1.074-0.383-1.43
		c-0.18-0.358-0.419-0.611-0.723-0.761c-0.297-0.148-0.68-0.224-1.137-0.224c-0.543,0-0.982,0.098-1.316,0.293
		c-0.336,0.197-0.601,0.49-0.796,0.875c-0.194,0.388-0.327,0.874-0.397,1.458c-0.072,0.583-0.105,1.257-0.105,2.021
		c0,0.805,0.032,1.508,0.098,2.111c0.064,0.604,0.19,1.106,0.375,1.51c0.186,0.403,0.444,0.706,0.781,0.906
		c0.336,0.199,0.768,0.303,1.299,0.303c0.51,0,0.923-0.096,1.238-0.287c0.318-0.189,0.562-0.481,0.738-0.876
		c0.176-0.39,0.29-0.893,0.352-1.5C52.515,30.382,52.547,29.66,52.547,28.825z"/>
	<path fill="#FFFFFF" d="M90.889,26.463c-0.335-1.019-0.816-1.898-1.448-2.642c-0.63-0.741-1.394-1.324-2.29-1.747
		c-0.897-0.424-1.906-0.636-3.027-0.636c-0.511,0-0.99,0.075-1.441,0.224c-0.451,0.15-0.871,0.356-1.254,0.618
		c-0.385,0.265-0.738,0.572-1.053,0.923c-0.014,0.016-0.027,0.035-0.043,0.05v-0.01c-0.297,0.337-0.564,0.692-0.797,1.075
		c-0.236-0.383-0.502-0.738-0.803-1.075v0.01c-0.014-0.016-0.027-0.034-0.041-0.05c-0.315-0.351-0.667-0.659-1.051-0.923
		c-0.387-0.262-0.805-0.468-1.256-0.618c-0.451-0.148-0.93-0.224-1.441-0.224c-1.122,0-2.13,0.212-3.027,0.636
		c-0.896,0.423-1.658,1.005-2.289,1.747c-0.631,0.743-1.114,1.623-1.449,2.642c-0.336,1.018-0.504,2.127-0.504,3.321
		c0,1.154,0.147,2.213,0.442,3.175c0.294,0.958,0.699,1.823,1.21,2.601c0.51,0.775,1.107,1.456,1.797,2.045
		c0.684,0.588,1.422,1.084,2.213,1.485h2.133v-1.935c-0.291-0.114-0.597-0.324-0.924-0.627c-0.324-0.305-0.623-0.686-0.894-1.139
		c-0.269-0.455-0.493-0.966-0.669-1.535c-0.176-0.564-0.261-1.172-0.261-1.812c0-0.049,0.001-0.102,0.005-0.153
		c0.006-0.052,0.01-0.104,0.01-0.156l-0.015-2.168v-0.446c0-0.715,0.022-1.373,0.073-1.974c0.05-0.606,0.155-1.127,0.316-1.564
		c0.16-0.438,0.387-0.783,0.676-1.031c0.291-0.25,0.677-0.371,1.156-0.371c0.42,0,0.809,0.084,1.166,0.246
		c0.352,0.166,0.662,0.408,0.922,0.729c0.261,0.32,0.463,0.717,0.609,1.184c0.145,0.473,0.217,1.012,0.217,1.619v1.054
		c0,0.433-0.054,0.838-0.158,1.215s-0.297,0.776-0.578,1.2v1.021h1.611h1.6h1.613v-1.021c-0.279-0.424-0.473-0.823-0.578-1.2
		c-0.106-0.377-0.158-0.782-0.158-1.215v-1.054c0-0.607,0.074-1.146,0.219-1.619c0.146-0.467,0.348-0.863,0.607-1.184
		s0.568-0.562,0.924-0.729c0.355-0.162,0.744-0.246,1.164-0.246c0.48,0,0.867,0.121,1.157,0.371
		c0.288,0.248,0.516,0.593,0.675,1.031c0.162,0.438,0.267,0.958,0.314,1.564c0.053,0.601,0.076,1.259,0.076,1.974v0.446
		l-0.016,2.168c0,0.053,0.005,0.104,0.008,0.156c0.006,0.052,0.008,0.104,0.008,0.153c0,0.64-0.086,1.247-0.262,1.812
		c-0.176,0.569-0.398,1.08-0.67,1.535c-0.27,0.453-0.566,0.834-0.895,1.139c-0.324,0.303-0.631,0.513-0.922,0.627v1.935h2.133
		c0.789-0.401,1.531-0.897,2.215-1.485c0.687-0.589,1.285-1.27,1.795-2.045c0.51-0.777,0.913-1.643,1.211-2.601
		c0.294-0.962,0.441-2.021,0.441-3.175C91.393,28.59,91.225,27.48,90.889,26.463z"/>
	<path fill="#FFFFFF" d="M104.447,17.954c-0.773,0-1.517,0.122-2.23,0.364c-0.718,0.241-1.387,0.571-2.007,0.991
		c-0.62,0.417-1.185,0.904-1.69,1.463c-0.504,0.558-0.938,1.151-1.298,1.78c0.439-0.321,0.935-0.587,1.487-0.799
		c0.549-0.212,1.111-0.315,1.68-0.315c0.514,0,0.99,0.071,1.436,0.218c0.445,0.143,0.859,0.338,1.239,0.585
		c0.382,0.247,0.729,0.541,1.044,0.883c0.314,0.341,0.601,0.708,0.85,1.099c0.238-0.391,0.512-0.757,0.816-1.099
		c0.307-0.342,0.645-0.636,1.014-0.883c0.373-0.247,0.773-0.442,1.203-0.585c0.43-0.147,0.891-0.218,1.383-0.218
		c1.062,0,2.041,0.185,2.943,0.557c0.902,0.373,1.68,0.914,2.335,1.628c0.655,0.712,1.171,1.577,1.541,2.599
		c0.37,1.022,0.554,2.183,0.554,3.484c0,0.92-0.123,1.85-0.367,2.786c-0.244,0.942-0.617,1.831-1.111,2.671
		c-0.496,0.843-1.113,1.607-1.854,2.294c-0.743,0.686-1.604,1.231-2.584,1.633h-2.494v-2.788c0.619,0,1.139-0.104,1.557-0.314
		c0.413-0.213,0.746-0.552,0.998-1.017c0.25-0.464,0.427-1.069,0.532-1.818s0.156-1.661,0.156-2.735
		c0-0.875-0.015-1.693-0.051-2.453c-0.036-0.758-0.126-1.416-0.269-1.973c-0.148-0.561-0.374-0.997-0.678-1.316
		c-0.305-0.319-0.729-0.481-1.27-0.481c-0.271,0-0.562,0.069-0.879,0.205c-0.316,0.133-0.605,0.354-0.871,0.664
		c-0.266,0.308-0.488,0.722-0.668,1.237c-0.182,0.516-0.271,1.15-0.271,1.904v1.115c0,0.422,0.065,0.834,0.194,1.232
		c0.131,0.396,0.32,0.797,0.571,1.197v1.021h-4.763v-1.053c0.242-0.402,0.412-0.798,0.513-1.191
		c0.099-0.391,0.149-0.795,0.149-1.207v-1.115c0-0.773-0.084-1.416-0.254-1.927c-0.172-0.512-0.384-0.922-0.633-1.231
		c-0.25-0.312-0.521-0.529-0.811-0.657c-0.289-0.13-0.562-0.195-0.811-0.195c-0.961,0-1.66,0.487-2.097,1.456
		c-0.437,0.97-0.653,2.45-0.653,4.444c0,1.044,0.096,1.953,0.285,2.732c0.191,0.778,0.456,1.429,0.797,1.943
		c0.341,0.517,0.738,0.901,1.195,1.153c0.454,0.254,0.952,0.379,1.494,0.379v2.788h-2.658c-0.892-0.361-1.707-0.883-2.451-1.563
		c-0.74-0.683-1.379-1.449-1.922-2.299c-0.539-0.852-0.961-1.754-1.261-2.703c-0.301-0.949-0.45-1.88-0.45-2.786
		c0-0.735,0.049-1.558,0.149-2.47c0.099-0.915,0.28-1.858,0.542-2.836c0.261-0.973,0.623-1.947,1.088-2.917
		c0.465-0.97,1.064-1.88,1.795-2.733c0.73-0.854,1.613-1.614,2.646-2.293c1.029-0.676,2.247-1.205,3.647-1.585
		c0.892-0.239,1.708-0.448,2.449-0.626c0.74-0.182,1.402-0.368,1.98-0.56c0.584-0.191,1.08-0.4,1.488-0.628
		c0.412-0.227,0.734-0.511,0.963-0.849h2.433c-0.061,0.215-0.146,0.508-0.257,0.874c-0.107,0.366-0.277,0.761-0.5,1.186
		c-0.225,0.423-0.522,0.851-0.887,1.285c-0.367,0.433-0.827,0.826-1.383,1.176c-0.556,0.352-1.225,0.639-2.004,0.861
		C106.429,17.843,105.508,17.954,104.447,17.954z"/>
	<path fill="#FFFFFF" d="M134.324,31.641c0,1.424-0.207,2.614-0.623,3.562c-0.417,0.952-0.973,1.713-1.668,2.283
		c-0.695,0.577-1.494,0.984-2.397,1.225c-0.899,0.243-1.837,0.366-2.81,0.366c-1.35,0-2.549-0.212-3.596-0.637
		c-1.045-0.425-1.928-1.021-2.642-1.797c-0.718-0.774-1.262-1.698-1.632-2.777c-0.369-1.079-0.555-2.274-0.555-3.585
		c0-1.238,0.217-2.374,0.652-3.407c0.436-1.03,1.016-1.919,1.742-2.665c0.727-0.742,1.559-1.318,2.494-1.733
		c0.936-0.413,1.902-0.619,2.906-0.619c0.562,0,1.135,0.096,1.726,0.287c0.593,0.192,1.13,0.415,1.608,0.673l0.016-5.838
		c0-0.713-0.241-1.264-0.723-1.657c-0.479-0.391-1.305-0.587-2.477-0.587c-0.42,0-0.807,0.032-1.155,0.099
		c-0.351,0.07-0.652,0.185-0.901,0.348c-0.252,0.167-0.447,0.387-0.588,0.659c-0.139,0.274-0.209,0.617-0.209,1.031
		c0,0.378,0.395,0.881,1.186,1.502l-3.244,2.694c-0.311-0.332-0.584-0.675-0.826-1.03c-0.24-0.358-0.442-0.711-0.609-1.064
		c-0.163-0.35-0.291-0.686-0.382-1.004c-0.089-0.321-0.136-0.609-0.136-0.867c0-0.846,0.191-1.587,0.572-2.224
		c0.379-0.634,0.875-1.162,1.486-1.585c0.611-0.422,1.305-0.745,2.08-0.962c0.777-0.215,1.555-0.324,2.337-0.324
		c1.481,0,2.753,0.114,3.805,0.343c1.058,0.227,1.923,0.571,2.601,1.033c0.676,0.466,1.172,1.051,1.488,1.76
		c0.314,0.709,0.473,1.542,0.473,2.501V31.641z M129.531,30.868c0-0.963-0.037-1.779-0.113-2.464
		c-0.075-0.679-0.179-1.257-0.313-1.726s-0.302-0.84-0.497-1.115c-0.195-0.271-0.414-0.483-0.66-0.635
		c-0.245-0.149-0.514-0.245-0.805-0.287c-0.289-0.04-0.596-0.06-0.914-0.06c-0.502,0-0.928,0.116-1.277,0.347
		c-0.352,0.234-0.637,0.581-0.855,1.046c-0.222,0.465-0.381,1.05-0.482,1.751c-0.099,0.7-0.15,1.516-0.15,2.446
		c0,1.165,0.062,2.14,0.182,2.919c0.121,0.779,0.307,1.405,0.562,1.88c0.256,0.476,0.581,0.813,0.977,1.017
		c0.395,0.199,0.869,0.302,1.42,0.302c0.6,0,1.088-0.099,1.463-0.296c0.377-0.196,0.674-0.512,0.895-0.943
		c0.221-0.436,0.369-0.993,0.451-1.682C129.492,32.682,129.531,31.851,129.531,30.868z"/>
	<path fill="#FFFFFF" d="M151.734,38.95c0,1.136-0.17,2.15-0.503,3.044c-0.337,0.895-0.829,1.655-1.481,2.283
		c-0.65,0.631-1.463,1.111-2.439,1.44c-0.977,0.33-2.102,0.495-3.371,0.495c-0.812,0-1.576-0.097-2.293-0.294
		c-0.715-0.194-1.373-0.464-1.975-0.806c-0.598-0.339-1.137-0.738-1.613-1.193c-0.475-0.452-0.881-0.938-1.21-1.455
		c-0.329-0.515-0.583-1.046-0.759-1.595c-0.174-0.546-0.264-1.084-0.264-1.609c0-0.662,0.104-1.25,0.309-1.775
		c0.207-0.52,0.475-0.977,0.811-1.366c0.338-0.395,0.716-0.729,1.143-1.009c0.426-0.277,0.864-0.511,1.315-0.695
		c0.45-0.188,0.892-0.334,1.329-0.442c0.434-0.107,0.822-0.185,1.162-0.225l0.483,1.549c-0.163,0.133-0.329,0.317-0.504,0.548
		c-0.177,0.232-0.335,0.516-0.483,0.846c-0.143,0.33-0.264,0.712-0.357,1.145c-0.098,0.434-0.145,0.921-0.145,1.457
		c0,1.456,0.234,2.523,0.699,3.203c0.467,0.684,1.225,1.024,2.275,1.024c1.041,0,1.777-0.329,2.209-0.983
		c0.432-0.656,0.643-1.624,0.643-2.903V26.889c0-0.567-0.062-1.03-0.201-1.386c-0.135-0.357-0.322-0.633-0.562-0.828
		c-0.239-0.197-0.529-0.329-0.871-0.396c-0.34-0.066-0.709-0.101-1.112-0.101c-0.358,0-0.694,0.051-1.005,0.156
		c-0.312,0.104-0.582,0.259-0.811,0.47c-0.232,0.214-0.416,0.482-0.551,0.814c-0.134,0.329-0.201,0.721-0.201,1.177
		c0,0.229,0.027,0.436,0.09,0.625c0.059,0.191,0.156,0.375,0.293,0.552c0.135,0.176,0.316,0.346,0.54,0.509
		c0.226,0.168,0.499,0.337,0.819,0.512l-1.771,3.346c-0.631-0.215-1.197-0.525-1.699-0.929c-0.5-0.403-0.92-0.843-1.262-1.316
		c-0.34-0.474-0.6-0.958-0.779-1.448c-0.182-0.49-0.271-0.932-0.271-1.321c0-1.076,0.192-1.987,0.578-2.736
		c0.386-0.745,0.896-1.355,1.533-1.818c0.635-0.465,1.369-0.804,2.199-1.016c0.832-0.212,1.699-0.315,2.598-0.315
		c1.174,0,2.219,0.138,3.141,0.409c0.922,0.273,1.703,0.674,2.342,1.193c0.643,0.521,1.134,1.163,1.474,1.928
		c0.341,0.763,0.511,1.642,0.511,2.632V38.95z"/>
	<path fill="#FFFFFF" d="M216.932,29.876c0,1.827-0.337,3.527-1.008,5.104c-0.672,1.574-1.687,2.94-3.049,4.097h-2.643v-1.921
		c0.33-0.094,0.607-0.225,0.841-0.39c0.228-0.163,0.415-0.422,0.563-0.772c0.143-0.352,0.25-0.814,0.312-1.385
		c0.066-0.572,0.1-1.318,0.1-2.238v-2.106c0-1.207-0.041-2.202-0.121-2.981c-0.08-0.778-0.229-1.398-0.449-1.857
		s-0.525-0.78-0.916-0.961c-0.393-0.18-0.893-0.271-1.504-0.271c-0.52,0-0.952,0.073-1.29,0.216
		c-0.342,0.146-0.61,0.437-0.813,0.869c-0.195,0.433-0.34,1.052-0.42,1.856c-0.08,0.807-0.119,1.875-0.119,3.208v1.719
		c0,0.919,0.016,1.682,0.037,2.29c0.026,0.61,0.092,1.103,0.203,1.479c0.109,0.377,0.275,0.666,0.495,0.867
		c0.221,0.201,0.527,0.352,0.917,0.457v1.921h-2.869c-1.23-1.181-2.179-2.535-2.838-4.074c-0.66-1.538-0.992-3.221-0.992-5.046
		c0-1.25,0.183-2.398,0.549-3.447c0.363-1.048,0.879-1.947,1.547-2.695c0.665-0.746,1.471-1.33,2.418-1.749
		c0.947-0.417,2.006-0.626,3.176-0.626c1.184,0,2.258,0.202,3.224,0.604c0.965,0.402,1.794,0.972,2.485,1.709
		c0.691,0.739,1.225,1.628,1.602,2.666C216.742,27.453,216.932,28.606,216.932,29.876z"/>
	<g>
		<path fill="#FFFFFF" d="M208.242,17.557C205.14,7.37,196.338,0,185.562,0c-10.395,0-20.158,6.731-23.834,16.235h5.291
			c2.854-6.671,10.145-13.042,18.543-13.042c9.062,0,17.448,5.974,20.625,14.364H208.242z"/>
	</g>
	<path fill="#FFFFFF" d="M174.673,34.522c0-0.054-0.011-0.115-0.011-0.171c-0.031-1.565-0.248-3.017-0.673-4.346
		c-0.455-1.43-1.122-2.661-1.997-3.695c-0.878-1.03-1.965-1.835-3.26-2.413c-0.836-0.372-1.756-0.611-2.751-0.745
		c0.026-0.308,0.074-0.601,0.17-0.867c0.132-0.371,0.343-0.778,0.632-1.222v-1.039h-5.324v1.053
		c0.289,0.444,0.502,0.853,0.639,1.224c0.096,0.257,0.146,0.543,0.176,0.84c-1.026,0.128-1.977,0.373-2.834,0.755
		c-1.297,0.578-2.387,1.383-3.26,2.413c-0.877,1.034-1.543,2.266-1.998,3.695c-0.424,1.329-0.641,2.78-0.672,4.346
		c0,0.056-0.012,0.117-0.012,0.171c0,0.03,0.004,0.061,0.004,0.09c0,0.033-0.004,0.062-0.004,0.093c0,0.057,0.012,0.112,0.012,0.173
		c0.031,1.562,0.248,3.016,0.672,4.344c0.455,1.43,1.121,2.662,1.998,3.693c0.873,1.031,1.963,1.838,3.26,2.416
		c1.298,0.576,2.787,0.867,4.467,0.867c0.061,0,0.119-0.003,0.182-0.005c0.059,0.002,0.117,0.005,0.176,0.005
		c1.682,0,3.171-0.291,4.469-0.867c1.295-0.578,2.382-1.385,3.26-2.416c0.875-1.031,1.542-2.264,1.997-3.693
		c0.425-1.328,0.642-2.782,0.673-4.344c0-0.061,0.011-0.116,0.011-0.173c0-0.031-0.003-0.06-0.003-0.093
		C174.67,34.583,174.673,34.553,174.673,34.522z M169.342,37.998c-0.164,1.214-0.445,2.229-0.85,3.044
		c-0.404,0.814-0.951,1.429-1.637,1.844c-0.676,0.402-1.683,0.619-2.768,0.73c-1.088-0.111-2.097-0.328-2.771-0.73
		c-0.686-0.415-1.232-1.029-1.637-1.844c-0.406-0.815-0.688-1.83-0.85-3.044c-0.131-0.992-0.205-2.126-0.23-3.386
		c0.025-1.26,0.1-2.393,0.23-3.383c0.162-1.214,0.443-2.227,0.85-3.041c0.404-0.819,0.951-1.43,1.637-1.845
		c0.275-0.163,0.619-0.294,0.99-0.401v0.852c0,0.452-0.07,6.553-0.209,6.926c-0.137,0.372-0.35,0.778-0.639,1.225v1.051h5.324
		v-1.037c-0.289-0.443-0.5-0.853-0.632-1.224c-0.132-0.37-0.2-6.477-0.2-6.94v-0.826c0.336,0.105,0.65,0.224,0.904,0.376
		c0.686,0.415,1.232,1.025,1.637,1.845c0.404,0.814,0.686,1.827,0.85,3.041c0.129,0.99,0.203,2.123,0.229,3.383
		C169.545,35.872,169.471,37.006,169.342,37.998z"/>
	<path fill="#FFFFFF" d="M199.396,26.463c-0.335-1.019-0.819-1.898-1.45-2.642c-0.629-0.741-1.393-1.324-2.289-1.747
		c-0.896-0.424-1.904-0.636-3.025-0.636c-0.514,0-0.993,0.075-1.444,0.224c-0.45,0.15-0.87,0.356-1.253,0.618
		c-0.386,0.265-0.738,0.572-1.051,0.923c-0.317,0.35-0.592,0.725-0.832,1.125c-0.239-0.399-0.516-0.774-0.832-1.125
		c-0.314-0.351-0.666-0.659-1.05-0.923c-1.603-1.089-4.923-0.566-4.923-0.566c1.426-0.407,4.637-2.085,5.127-2.391
		c1.984-5.111,3.57-10.817,3.57-10.817l-0.561-0.124l-11.374,15.632c-0.132,0.167-0.257,0.339-0.374,0.516l-0.068,0.095
		c0.002,0,0.004,0.001,0.008,0.001c-0.352,0.556-0.645,1.164-0.869,1.838c-0.334,1.018-0.5,2.127-0.5,3.321
		c0,1.154,0.145,2.213,0.441,3.175c0.295,0.958,0.697,1.823,1.208,2.601c0.513,0.775,1.11,1.456,1.796,2.045
		c0.687,0.588,1.422,1.084,2.215,1.485h2.134v-1.935c-0.292-0.114-0.6-0.324-0.923-0.627c-0.326-0.305-0.625-0.686-0.895-1.139
		c-0.271-0.455-0.495-0.966-0.668-1.535c-0.178-0.564-0.264-1.172-0.264-1.812c0-0.049,0.002-0.102,0.007-0.153
		s0.009-0.104,0.009-0.156l-0.016-2.168v-0.446c0-0.715,0.025-1.373,0.075-1.974c0.049-0.606,0.155-1.127,0.313-1.564
		c0.163-0.438,0.389-0.783,0.678-1.031c0.289-0.25,0.676-0.371,1.157-0.371c0.419,0,0.808,0.084,1.163,0.246
		c0.355,0.166,0.662,0.408,0.924,0.729c0.263,0.32,0.461,0.717,0.608,1.184c0.143,0.473,0.218,1.012,0.218,1.619v1.054
		c0,0.433-0.054,0.838-0.158,1.215c-0.105,0.377-0.299,0.776-0.58,1.2v1.021h4.804v-1.021c-0.282-0.424-0.473-0.823-0.579-1.2
		c-0.105-0.377-0.158-0.782-0.158-1.215v-1.054c0-0.607,0.071-1.146,0.219-1.619c0.146-0.467,0.346-0.863,0.607-1.184
		s0.569-0.562,0.923-0.729c0.356-0.162,0.745-0.246,1.167-0.246c0.479,0,0.867,0.121,1.154,0.371
		c0.292,0.248,0.517,0.593,0.678,1.031c0.159,0.438,0.264,0.958,0.312,1.564c0.053,0.601,0.078,1.259,0.078,1.974v0.446
		l-0.016,2.168c0,0.053,0.002,0.104,0.007,0.156c0.006,0.052,0.009,0.104,0.009,0.153c0,0.64-0.09,1.247-0.264,1.812
		c-0.174,0.569-0.4,1.08-0.67,1.535c-0.271,0.453-0.567,0.834-0.893,1.139c-0.325,0.303-0.633,0.513-0.926,0.627v1.935h2.132
		c0.793-0.401,1.532-0.897,2.218-1.485c0.688-0.589,1.285-1.27,1.796-2.045c0.509-0.777,0.912-1.643,1.21-2.601
		c0.295-0.962,0.441-2.021,0.441-3.175C199.898,28.59,199.73,27.48,199.396,26.463z"/>
</g>
</svg>
