<?xml version="1.0" encoding="utf-8"?>
<!-- Generator: Adobe Illustrator 16.0.0, SVG Export Plug-In . SVG Version: 6.00 Build 0)  -->
<!DOCTYPE svg PUBLIC "-//W3C//DTD SVG 1.1//EN" "http://www.w3.org/Graphics/SVG/1.1/DTD/svg11.dtd">
<svg version="1.1" id="Layer_1" xmlns="http://www.w3.org/2000/svg" xmlns:xlink="http://www.w3.org/1999/xlink" x="0px" y="0px"
	 width="14.781px" height="15.209px" viewBox="0 0 14.781 15.209" enable-background="new 0 0 14.781 15.209" xml:space="preserve">
<path fill="#FFFFFF" d="M14.334,4.866c0.223-0.574,0.275-1.513-0.592-2.294c0.043-0.289,0.049-0.755-0.211-1.221
	c-0.336-0.604-0.998-1.013-1.965-1.219C11.153,0.044,10.659,0,10.088,0C9.756,0,9.4,0.015,9.02,0.044
	C6.909,0.001,4.543,0.767,4.456,0.778c-0.002,0,0.304,0,0.301,0.001L4.032,0.389C3.814,0.223,3.543,0.123,3.248,0.123H1.3
	C0.583,0.123,0,0.707,0,1.424v5.188c0,0.717,0.583,1.3,1.3,1.3h1.948c0.235,0,0.456-0.063,0.647-0.173
	c0.131,0.298,0.331,0.644,0.632,0.96c0.015,0.015,0.03,0.029,0.046,0.042c1.009,0.774,2.196,3.562,2.615,4.689
	c-0.039,0.317-0.088,1.099,0.262,1.508c0.153,0.178,0.357,0.271,0.592,0.271c0.244,0,1.08-0.057,1.602-0.777
	c0.496-0.687,0.521-1.72,0.076-3.07c-0.397-1.208-0.416-1.711-0.396-1.9C9.508,9.504,9.688,9.541,9.858,9.57
	c0.002,0,0.002,0.001,0.004,0.001c0.301,0.067,2.977,0.629,4.107-0.405c0.691-0.631,0.602-1.44,0.393-1.949
	c0.176-0.23,0.399-0.612,0.418-1.094C14.797,5.686,14.648,5.263,14.334,4.866z M3.248,0.926c0.274,0,0.497,0.223,0.497,0.497v5.188
	c0,0.029-0.004,0.058-0.009,0.085c-0.04,0.055-0.064,0.119-0.074,0.188C3.573,7.018,3.421,7.107,3.248,7.107H1.3
	c-0.273,0-0.497-0.222-0.497-0.496V1.423c0-0.273,0.223-0.497,0.497-0.497H3.248z M13.977,6.085
	c-0.014,0.443-0.363,0.768-0.367,0.771c-0.143,0.132-0.174,0.351-0.068,0.515c0.044,0.07,0.42,0.714-0.113,1.201
	c-0.691,0.632-2.693,0.367-3.371,0.219c-0.013-0.004-0.025-0.007-0.039-0.009c-0.176-0.031-0.365-0.069-0.56-0.114
	C9.262,8.597,8.993,8.607,8.79,8.787c-0.414,0.369-0.365,1.214,0.166,2.826c0.355,1.076,0.367,1.888,0.035,2.348
	c-0.293,0.403-0.781,0.442-0.939,0.444c-0.086-0.113-0.113-0.582-0.055-0.959c0.01-0.067,0.004-0.135-0.02-0.199
	c-0.061-0.164-1.462-3.995-2.888-5.124c-0.38-0.409-0.543-0.889-0.603-1.117c0.04-0.125,0.062-0.257,0.062-0.395V1.923
	c0-0.102-0.013-0.2-0.035-0.294l0.36-0.056c0.103-0.012,2.137-0.769,4.15-0.726c0.014,0,0.026,0,0.04-0.001
	c0.969-0.077,1.756-0.053,2.337,0.071c0.725,0.154,1.204,0.428,1.425,0.815c0.237,0.416,0.098,0.842,0.092,0.86
	c-0.059,0.166-0.003,0.348,0.139,0.453c0.973,0.73,0.514,1.584,0.459,1.679c-0.095,0.155-0.07,0.352,0.055,0.483
	C13.85,5.501,13.987,5.796,13.977,6.085z"/>
</svg>
