<?xml version="1.0" encoding="utf-8"?>
<!-- Generator: Adobe Illustrator 16.0.0, SVG Export Plug-In . SVG Version: 6.00 Build 0)  -->
<!DOCTYPE svg PUBLIC "-//W3C//DTD SVG 1.1//EN" "http://www.w3.org/Graphics/SVG/1.1/DTD/svg11.dtd">
<svg version="1.1" id="Layer_1" xmlns="http://www.w3.org/2000/svg" xmlns:xlink="http://www.w3.org/1999/xlink" x="0px" y="0px"
	 width="14.781px" height="15.209px" viewBox="0 0 14.781 15.209" enable-background="new 0 0 14.781 15.209" xml:space="preserve">
<path fill="#FFFFFF" d="M14.78,9.086c-0.019-0.481-0.242-0.863-0.418-1.094c0.209-0.509,0.299-1.318-0.393-1.949
	c-1.131-1.035-3.807-0.473-4.107-0.405c-0.002,0-0.002,0.001-0.004,0.001c-0.17,0.03-0.35,0.066-0.535,0.108
	c-0.02-0.188-0.001-0.692,0.396-1.9c0.445-1.35,0.42-2.383-0.076-3.07C9.122,0.057,8.286,0,8.042,0C7.806,0,7.602,0.094,7.449,0.271
	c-0.35,0.409-0.3,1.191-0.262,1.508C6.769,2.907,5.582,5.695,4.573,6.469C4.556,6.481,4.541,6.496,4.526,6.511
	c-0.301,0.316-0.501,0.662-0.632,0.96c-0.191-0.11-0.412-0.173-0.647-0.173H1.3c-0.717,0-1.3,0.583-1.3,1.3v5.188
	c0,0.717,0.583,1.301,1.3,1.301h1.948c0.295,0,0.567-0.1,0.785-0.266l0.724-0.391c0.003,0.001-0.303,0.001-0.301,0.001
	c0.087,0.011,2.454,0.776,4.564,0.734c0.38,0.029,0.736,0.044,1.068,0.044c0.57,0,1.064-0.044,1.479-0.132
	c0.967-0.206,1.629-0.615,1.965-1.219c0.26-0.466,0.254-0.932,0.211-1.221c0.867-0.782,0.814-1.721,0.592-2.294
	C14.648,9.946,14.797,9.523,14.78,9.086z M1.3,14.283c-0.273,0-0.497-0.223-0.497-0.497V8.598c0-0.273,0.223-0.496,0.497-0.496
	h1.948c0.173,0,0.326,0.089,0.414,0.223c0.009,0.069,0.034,0.133,0.074,0.188C3.74,8.54,3.744,8.568,3.744,8.598v5.188
	c0,0.273-0.223,0.497-0.497,0.497H1.3z M13.569,10.001c-0.125,0.131-0.149,0.328-0.055,0.483c0.055,0.095,0.514,0.949-0.459,1.679
	c-0.142,0.105-0.197,0.287-0.139,0.453c0.006,0.018,0.146,0.444-0.092,0.86c-0.221,0.387-0.7,0.661-1.425,0.815
	c-0.581,0.124-1.368,0.148-2.337,0.071c-0.014-0.001-0.026-0.001-0.04-0.001c-2.013,0.043-4.048-0.713-4.15-0.726l-0.36-0.056
	c0.022-0.094,0.035-0.192,0.035-0.294V8.598c0-0.137-0.022-0.27-0.062-0.395c0.06-0.229,0.223-0.708,0.603-1.117
	c1.426-1.129,2.828-4.96,2.888-5.124C8,1.898,8.006,1.83,7.997,1.763C7.938,1.386,7.965,0.917,8.051,0.804
	c0.158,0.002,0.646,0.041,0.939,0.444c0.332,0.459,0.32,1.271-0.035,2.348C8.424,5.208,8.375,6.053,8.79,6.422
	c0.203,0.18,0.473,0.19,0.669,0.118c0.194-0.044,0.384-0.083,0.56-0.114c0.014-0.002,0.026-0.004,0.039-0.009
	c0.678-0.148,2.68-0.413,3.371,0.219c0.533,0.487,0.157,1.131,0.113,1.201c-0.105,0.164-0.074,0.383,0.068,0.515
	c0.004,0.003,0.354,0.329,0.367,0.771C13.987,9.413,13.85,9.708,13.569,10.001z"/>
</svg>
