<?xml version="1.0" encoding="utf-8"?>
<!-- Generator: Adobe Illustrator 16.0.0, SVG Export Plug-In . SVG Version: 6.00 Build 0)  -->
<!DOCTYPE svg PUBLIC "-//W3C//DTD SVG 1.1//EN" "http://www.w3.org/Graphics/SVG/1.1/DTD/svg11.dtd">
<svg version="1.1" id="Layer_1" xmlns="http://www.w3.org/2000/svg" xmlns:xlink="http://www.w3.org/1999/xlink" x="0px" y="0px"
	 width="30px" height="30px" viewBox="0 0 30 30" enable-background="new 0 0 30 30" xml:space="preserve">
<path fill="#35AED7" d="M24.23,0H5.769C2.615,0,0,2.615,0,5.769v18.462C0,27.384,2.615,30,5.769,30H24.23
	C27.384,30,30,27.384,30,24.231V5.769C30,2.615,27.461,0,24.23,0z"/>
<path fill="#FFFFFF" d="M24.711,9.022c-0.715,0.315-1.483,0.527-2.289,0.622c0.822-0.488,1.454-1.264,1.752-2.188
	c-0.771,0.453-1.623,0.782-2.531,0.96c-0.728-0.769-1.763-1.25-2.909-1.25c-2.201,0-3.985,1.772-3.985,3.956
	c0,0.311,0.035,0.611,0.104,0.902c-3.313-0.165-6.25-1.74-8.215-4.133c-0.344,0.584-0.54,1.264-0.54,1.988
	c0,1.371,0.704,2.583,1.773,3.293c-0.653-0.021-1.268-0.199-1.805-0.496c0,0.018,0,0.034,0,0.051c0,1.916,1.374,3.515,3.197,3.879
	c-0.334,0.09-0.687,0.139-1.05,0.139c-0.256,0-0.506-0.025-0.75-0.071c0.507,1.571,1.979,2.715,3.723,2.747
	c-1.364,1.061-3.083,1.693-4.95,1.693c-0.32,0-0.636-0.018-0.947-0.055v0.002C6.99,22.144,9,22.789,11.161,22.833h0.562
	c7.121-0.178,11.01-6.104,11.01-11.252c0-0.172-0.004-0.342-0.011-0.512C23.5,10.512,24.177,9.816,24.711,9.022z"/>
</svg>
